<?xml version="1.0" encoding="utf-8"?>
<!-- Generator: Adobe Illustrator 22.0.1, SVG Export Plug-In . SVG Version: 6.00 Build 0)  -->
<svg version="1.1" id="Слой_1" xmlns="http://www.w3.org/2000/svg" xmlns:xlink="http://www.w3.org/1999/xlink" x="0px" y="0px"
	 viewBox="0 0 1190.6 1683.8" style="enable-background:new 0 0 1190.6 1683.8;" xml:space="preserve">
<style type="text/css">
	.st0{fill:none;}
</style>
<g>
	<g>
		<path d="M971.6,692.1c-19.9-48.6-49-92.2-86.4-129.7c-37.9-38-82.2-67.4-131.6-87.5c-47.7-19.4-98-29.1-149.7-29.1h-0.5
			c-51.5,0-101.8,9.6-149.3,28.8c-31.2,12.6-62.9,28.9-89.7,48.8c-2,1.3-4,3.8-4,3.8l1.4,10.4c0,0,36.4,0.1,36.8,0.1
			c61.7-41.4,133.3-62.2,204.9-62.2c94.4,0,188.7,36,260.5,107.9c31.8,31.9,57,68.6,75.1,108.5l0.5,1.8l31.8-0.2L971.6,692.1z"/>
		<path d="M791.6,1160.1c-56.3,33.7-120.9,51.8-188.1,51.8H603c-98.3-1-190.7-38.7-260.1-108.3c-30.4-30.5-54.9-65.5-72.7-103.4
			h-32.7c19.9,46.4,48.1,88.3,84.2,124.5c37.9,38,82.2,67.6,131.6,87.7c47.7,19.4,98,29.5,149.7,29.5h0.5
			c51.5,0,101.8-10,149.3-29.2c33-13.4,63.8-31,92-52.6C839.2,1159.6,795.4,1159.6,791.6,1160.1z"/>
	</g>
	<path class="st0" d="M223.4,848.9c9.7-4.6,17.7-15.4,18.3-17.9c0.1-10-8.1-18-18.4-18c-10.5,0-18.7,7.9-18.7,18
		C204.7,841,212.9,848.9,223.4,848.9z M206.3,836.2c2.8,2.8,6.2,3.3,9.8,2.6c3.5-0.7,5.7-3.6,5.6-7.2c-0.1-3.2-2.2-5.3-5.9-5.9
		c-3.5-0.6-6.8-0.3-9.4,2.7c0.9-6.2,9.5-10,14.6-9.3c7.3,1,12.5,6.8,12.3,13.8c-0.2,6.7-5.5,12.3-12,13.1
		C215.1,846.7,206.9,842.2,206.3,836.2z"/>
	<path class="st0" d="M244.1,882.9c-2.7-2.4-6.1-4.3-9.6-5.4c-10.8-3.7-22-2.9-33.2-1c0.4,0,0.8,0.1,1.3,0.1
		c5.4,0.1,10.9,0,16.3,0.4c6.3,0.4,12.5,1.5,18.2,4.4c4.9,2.6,7.3,6.7,6.7,10.8c-0.7,4.4-4.2,7.4-9.9,8.4c-0.8,0.1-1.7,0.2-2.6,0.2
		c-1.2,0.1-2.3,0.2-3.5,0.2c5.1,1,10.1,0.8,14.6-2C248.8,895.1,249.7,887.9,244.1,882.9z"/>
	<path class="st0" d="M295.1,807.9c3-3.6,3.1-7.3,0.7-11.2c-2.8-4.6-5.8-9.2-8.5-13.8c-10.7-18.2-21.4-36.5-32.1-54.8
		c-0.5-0.9-1-1.8-1.5-2.7c6.3-6.6,16-7.2,23.2-1.4c2,1.6,3.6,3.7,5.4,5.7c3.1,3.5,8.3,4.1,12,1.4c3.8-2.8,4.4-7.6,1.6-11.6
		c-4.4-6.4-10.4-10.9-17.7-13.6c-3.3-1.3-7-2.1-10.6-2.3c-13-0.6-22.8,5.2-30.5,15c-2.7,3.4-2.9,6.9-0.7,10.6
		c6.5,11,12.9,22.1,19.4,33.2c7.5,12.8,15,25.7,22.5,38.6c-6.6,6.5-15.7,7.2-22.8,1.7c-2.2-1.7-3.9-3.9-5.7-6
		c-2.9-3.3-7.7-4.2-11.3-1.8c-3.5,2.3-5,7.5-2.6,11c6.9,10.1,16.2,16.5,28.8,16.9C277.4,823.3,287.2,817.4,295.1,807.9z
		 M284.4,728.2c0.1-0.5,0.9-0.8,1.3-1.2c0.2,0.2,0.3,0.5,0.5,0.7c0.9-0.5,2.4-0.9,2.4-1.4c0.1-1.1-0.6-2.3-0.9-3.4
		c-0.2-0.8-0.4-1.7-0.5-2.5c0.8,0.2,1.9,0.1,2.5,0.6c3.1,2.6,3,6.7-0.4,8.6c-1.1,0.6-2.7,0.3-4.1,0.2
		C284.9,729.7,284.3,728.7,284.4,728.2z M277.6,781.2c-0.4,0.2-1.3,0.1-1.5-0.2c-1.3-2-2.6-4.1-3.8-6.3c-0.2-0.3,0.1-1.1,0.4-1.3
		c0.3-0.3,1.3-0.3,1.5-0.1c1.5,2.2,2.9,4.4,4.4,6.8C278.3,780.5,278,781.1,277.6,781.2z M280.8,814.1c-5,3-10.3,5.3-16.4,5.6
		c-2.5-0.6-5-1-7.4-1.8c-0.6-0.2-1-1.3-1.4-1.9c0.7-0.2,1.5-0.8,2.1-0.6c7.1,2.5,13.6,0.8,19.8-2.6c0.6-0.3,1.2-0.9,1.8-1
		c0.7-0.1,1.5,0.2,2.2,0.4C281.3,812.9,281.3,813.8,280.8,814.1z M285.3,810.5c-0.5,0.1-1.4-0.1-1.8-0.5c-0.2-0.2-0.1-1.1,0.2-1.6
		c0.4-0.6,1-1.1,1.6-1.6c3.1-2.5,3.1-5.2,0.8-8.4c-2.9-4-5.2-8.4-7.7-12.8c-0.2-0.4,0.3-1.3,0.5-1.9c0.6,0.2,1.3,0.4,1.9,0.7
		c0.1,0,0.1,0.1,0.1,0.2c3.2,5.2,6.4,10.4,9.5,15.7c0.5,0.8,0.6,1.7,0.8,2.1C291.3,805.2,287.8,809.8,285.3,810.5z"/>
	<path class="st0" d="M290.3,668.8c22.6-22.1,47.6-41.4,75.2-57.2c15-8.6,30.3-16.8,45.7-24.6c9.8-5,20.2-9,30.3-13.5
		c1.9-0.8,4-1.5,5.9-2.2c-0.1-0.3-0.1-0.6-0.2-0.9c-3.8,0.3-8.1-0.3-11.5,1.2c-22.1,9.4-43.9,19.2-65.9,28.9c-0.8,0.3-1.5,0.7-2.3,1
		c-5.4-7.9-8.5-16.6-10.1-25.7c-1.6-9-2.4-18.2-3.5-27.3c-0.7,0.6-0.9,1.3-1,1.9c-3.8,19.2-3,38.1,3.2,56.9
		c-2.6,1.6-5.1,3.1-7.5,4.5c-0.3,0.2-0.7,0.3-1.3,0.6c-9.7-20.2-13.1-41.4-12.2-63.5c-0.5,0.7-0.9,1.4-1.1,2.1
		c-4.4,13.5-5.1,27.4-3.8,41.3c0.8,9.2,2.6,18.3,3.9,27.4c0.1,0.6,0.1,1.5-0.3,1.8c-2.6,2.1-5.3,4.1-8.2,6.4
		c-4-11.5-5.8-23.2-7.1-34.8c-1.3-11.6-1.9-23.4-2.8-35.2c-0.4,0.6-1.1,1.2-1.3,1.9c-1,2.3-2.1,4.6-2.6,7.1
		c-2.5,11.2-3.4,22.5-3.7,33.9c-0.4,13.5-0.2,26.9-0.2,40.4c0,1.8-0.6,2.9-1.9,4.1c-6.5,6.2-13.1,12.2-19.2,18.6
		c-6.6,6.9-12.9,14.1-19.1,21.3c-3.8,4.3-7.3,8.9-11,13.6c3.9-0.2,6-1.1,7.6-2.8C273,686.9,281.3,677.6,290.3,668.8z"/>
	<path class="st0" d="M174.1,872.7c-4.3,0.5-8.5,6.4-5.8,10.6c1.4-1.1,2.6-2.2,3.9-3.3c1.4-1.1,2.9-2,4.1-3.3c0.6-0.7,1.1-2.3,0.7-3
		C176.6,873.1,175.1,872.6,174.1,872.7z"/>
	<path class="st0" d="M365.5,698.7c1-0.2,2.1-0.4,2.9-1c22.9-16.5,47-31.1,72.6-43.3c10.9-5.2,21.8-10.2,32.8-15.2
		c3.5-1.6,7-3,10.7-4.5c-0.6-1.5-1.1-2.6-1.6-4C459.9,636.2,379.4,682.7,365.5,698.7z"/>
	<path class="st0" d="M361.7,821.2c4.1-1.3,6.2-4,6.2-8.1c0.1-31.5,0.1-63.1,0.2-94.6c0-1.9,0.1-3.8,0-5.7c-0.2-3-1.5-5.5-4.4-6.7
		c-7-3-12.8,0.7-12.8,8.2c0,13.7-0.1,27.4-0.1,41.1c0,0.9,0,1.8,0,2.8c-9.6,0-18.9,0-28.6-0.1c0-1.1,0-2,0-2.9
		c0-13.9,0.1-27.9,0.1-41.8c0-4.9-3.6-8.5-8.5-8.5c-4.8,0-8.3,3.6-8.3,8.5c0,8.3,0,16.7-0.1,25c0,24.7-0.1,49.4-0.2,74.1
		c0,3,0.9,5.6,3.5,7.4c2.7,1.9,5.6,2.2,8.6,0.7c3.2-1.6,4.8-4.3,4.8-7.8c0-11.8,0.1-23.6,0.1-35.4c0-0.9,0-1.8,0-2.5
		c9.8,0,19.1,0,28.6,0.1c0,1.1,0,2,0,3c0,11.4-0.1,22.8,0,34.2c0,2,0.6,4.1,1.5,5.8C354.1,821.2,358.1,822.3,361.7,821.2z
		 M314.7,818c-0.7,0.6-2.4,1-2.9,0.6c-1.2-1,0.3-1.7,0.8-2.5c0.7-1.1,1.2-2.4,1.4-3.7c0.2-1.4,0-2.9,0.2-4.3
		c0.1-0.6,0.9-1.1,1.3-1.6c0.5,0.5,1.2,0.9,1.4,1.5c0.2,0.9,0.1,2,0.1,3C316.9,813.5,317,816.2,314.7,818z M316.9,801.4
		c0,0.8-0.9,1.6-1.4,2.4c-0.5-0.8-1.3-1.6-1.4-2.5c-0.1-3.8,0-7.6,0-11.5s-0.1-7.7,0.1-11.5c0-0.8,0.9-1.6,1.4-2.4
		c0.5,0.8,1.3,1.6,1.3,2.4C317,786.1,317,793.8,316.9,801.4z M317,757.9c-0.1,0.6-0.9,1.1-1.4,1.7c-0.5-0.5-1.3-1-1.3-1.6
		c-0.1-2.7-0.1-5.5,0-8.2c0-0.5,0.8-1,1.3-1.6c0.5,0.6,1.3,1.1,1.4,1.7c0.2,1.3,0.1,2.7,0.1,4.1C317,755.3,317.2,756.6,317,757.9z
		 M315.6,745.7c-0.5-0.7-1.3-1.5-1.3-2.2c0.1-0.8,0.9-1.6,1.4-2.4c0.6,0.7,1.1,1.3,2,2.4C316.9,744.4,316.2,745,315.6,745.7z
		 M359.8,801.5c0-8.5,0-17,0-25.4c0-1.1-0.1-2.4,1.7-2.4c1.8,0,1.6,1.3,1.6,2.5c0,4.3,0,8.6,0,12.8c0,4.1,0,8.2,0,12.4
		c0,1.2,0.3,2.6-1.7,2.6C359.5,804,359.8,802.6,359.8,801.5z M357.2,818.5c0.2-0.7,0.4-1.4,0.7-2.1c0.6-1.6,1.5-3.1,1.9-4.7
		c0.3-1.1-0.1-2.5,0.1-3.6c0.1-0.6,0.9-1.5,1.5-1.5s1.4,0.8,1.6,1.4c0.3,0.9,0.1,2,0.1,3c0,3.1,0,6.2-3.6,7.7
		C358.8,818.9,357.9,818.6,357.2,818.5z"/>
	<path class="st0" d="M487.7,891.5c-13.9-1.9-25.9-7.7-35.8-17.5c-0.4-0.4-1.3-0.8-1.7-0.6c-1.7,0.8-3.3,1.8-5,2.8
		c27.6,23.5,61.7,24.2,83.7,11.4c-5.8,1.2-11.5,2.5-17.3,3.4C503.7,892.3,495.7,892.5,487.7,891.5z"/>
	<path class="st0" d="M467.4,866.3c-2.5-2.3-2.9-2.3-5.2,0.4c21.1,19.6,45.2,19.8,59.2,12c-4,0.5-7.6,1.1-11.2,1.4
		C494.2,880.9,479.6,877.1,467.4,866.3z"/>
	<path class="st0" d="M319.6,830.9c-0.1,0-0.1,0.1-0.3,0.2c0.9,1.6,1.9,3.3,2.7,4.9c7.7,14.9,5.4,28.2-6.7,39.9
		c-6.1,5.8-13.3,10.1-20.9,13.5c-0.9,0.4-1.9,0.9-2.8,1.3c0.1,0.2,0.2,0.4,0.2,0.6c1.7-0.4,3.3-0.9,5-1.4
		c7.6-2.3,14.6-5.6,20.7-10.6c14.8-11.9,16.2-29.6,9.2-44.9C324.7,829.9,324.6,830,319.6,830.9z"/>
	<path class="st0" d="M376.3,825.8c-2.3,1.5-2.4,3.4-2,5.9c1,5.6,0.7,11.3-0.3,16.9c-2.5,12.9-9.5,23.2-18.6,32.3
		c-0.6,0.6-1.2,1.2-1.8,1.9c18.9-8.2,32-40.7,23.7-58.5C376.9,824.9,376.7,825.5,376.3,825.8z"/>
	<path class="st0" d="M398.3,726.9c3.3-4.6,11.4-7.6,17.1-6.3c5.5,1.2,9.4,4.5,12.7,8.8c3,4,8.8,4.8,12.6,1.9
		c3.7-2.8,4.3-8.1,1.1-12.1c-1.2-1.6-2.7-2.9-4.1-4.3c-16.5-16.7-41.8-14.5-55,4.9c-0.9,1.4-1.6,3.2-1.6,4.9
		c-0.2,8.4-0.2,16.8,0,25.3c0,1.7,0.8,3.6,1.8,5c2,2.7,4.4,5.1,6.6,7.6c-2.1,2.3-4.2,4.6-6.2,6.9c-1.8,2-2.4,4.3-2.4,7
		c0.1,8.3-0.1,16.7,0.1,25c0,1.8,0.6,3.9,1.6,5.4c4,6,9.3,10.7,16.1,13.5c16.8,7,32.2,0.6,43.1-12.6c3.3-4,2.6-9.6-1.3-12.2
		c-4-2.6-9.4-2.3-12.6,2.1c-0.7,1-1.5,1.9-2.4,2.8c-7.7,8.1-18.9,8.2-26.5,0.2c-0.7-0.7-1.2-1.8-1.2-2.8c-0.1-6.1-0.1-12.2,0-18.4
		c0-0.8,0.3-1.7,0.8-2.2c3.8-4,8.4-6.4,14.2-6.4c2.4,0,4.8,0,7.2,0c4.8,0,8.3-3.4,8.4-8c0.1-4.7-3.4-8.4-8.2-8.5
		c-2.3-0.1-4.7-0.1-7,0c-5.6,0.1-10.3-2-14.1-6c-0.7-0.7-1.2-2-1.3-3c-0.1-5.4-0.1-10.9,0-16.3C397.8,728.3,397.9,727.5,398.3,726.9
		z M432,727.2c0.2,0.2,0.4,0.5,0.6,0.7c0.6-0.5,1.5-0.8,1.6-1.4c0.2-0.8,0.1-1.9-0.3-2.7c-0.5-1.1-2.7-1.8-1-3.2
		c0.4-0.3,2.1,0.7,3.1,1.3c2.1,1.2,2.5,3.4,1.4,5.1c-1,1.5-3,2.5-4.8,3.4c-0.4,0.2-1.6-1.1-2.5-1.8
		C430.8,728.2,431.4,727.7,432,727.2z M431.5,799.3c1.2-0.1,2.6,0,3.7,0.4c1.9,0.8,2.9,2.4,2.9,3.9c-0.2,3.1-2,4.3-3.8,5.4
		c-0.3,0.2-1.3,0-1.4-0.3c-0.2-0.5-0.3-1.3,0-1.8c0.3-0.6,1.1-0.9,1.3-1.5c0.3-0.9,0.4-1.9,0-2.7c-0.2-0.4-1.3-0.5-2-0.8
		c-0.6-0.3-1.2-0.6-1.8-1C430.7,800.4,431.1,799.4,431.5,799.3z M422,814.5c2.3-1.6,4.6-3,7-4.5c0.4-0.2,1.3-0.1,1.6,0.2
		c0.3,0.3,0.5,1.4,0.3,1.6c-2.5,1.9-5.2,3.7-7.9,5.7c-0.7-0.7-1.4-1-1.5-1.4C421.3,815.6,421.6,814.8,422,814.5z M389.8,784.6
		c0-0.5,0.9-1,1.4-1.5c0.5,0.5,1.2,1,1.3,1.5c0.2,1.3,0.1,2.7,0.1,4.1c0,1.5,0.1,2.9-0.1,4.3c-0.1,0.5-0.8,0.9-1.2,1.4
		c-0.5-0.5-1.4-0.9-1.5-1.4C389.6,790.3,389.6,787.4,389.8,784.6z M391.1,800.1c-0.5-0.6-1.3-1.2-1.3-1.7c0.1-0.7,0.9-1.2,1.4-1.9
		c0.5,0.5,1.1,1,2,1.9C392.2,799.1,391.6,799.6,391.1,800.1z M416.7,766.5c0.9-0.1,1.7-0.6,2.6-0.7c0.7-0.1,1.4,0,2.2,0.1
		c-0.2,0.7-0.1,1.8-0.6,2.1c-1.2,0.7-2.6,1.2-4.1,1.8c-0.9-0.6-2.1-1-2.2-1.6C414.3,766.6,415.6,766.6,416.7,766.5z"/>
	<path class="st0" d="M761.8,954.7c-1.6-0.3-1.8,1-1.8,2.3c0,1.2-0.1,2.6,1.5,2.5c0.8,0,1.5-1.1,2.6-2.1
		C763.1,956.1,762.5,954.9,761.8,954.7z"/>
	<path class="st0" d="M679.8,952.7c-1.6-0.2-1.6,1.2-1.6,2.4s0.1,2.6,1.6,2.4c0.8-0.1,1.4-1.3,2.6-2.4
		C681.2,954,680.6,952.8,679.8,952.7z"/>
	<path class="st0" d="M706.3,925c1.8-0.8,3.2-1.2,4.4-2c0.5-0.3,0.3-1.5,0.5-2.4c-0.8,0-1.5-0.2-2.3-0.1c-0.9,0.1-1.7,0.7-2.6,0.8
		c-1.2,0.1-2.6,0.1-2.4,1.7C704.1,923.7,705.4,924.2,706.3,925z"/>
	<path class="st0" d="M722.6,873.5c-1.9,1.3,0,2.4,0.8,3.5c0.4,0.7,0.6,1.7,0.4,2.5c-0.1,0.5-1,0.8-1.5,1.3
		c-0.2-0.2-0.4-0.5-0.6-0.7c-0.6,0.5-1.9,1.2-1.8,1.6c0.2,0.8,1,1.8,1.7,2c0.9,0.2,2.2,0,3.1-0.5c3-1.6,3.6-5.2,1.6-7.9
		C725.4,874.2,724.3,872.4,722.6,873.5z"/>
	<path class="st0" d="M681.4,961.4c-0.3-0.7-1.1-1.3-1.7-1.9c-0.5,0.6-1.3,1.2-1.4,2c-0.2,1.3,0.1,2.8-0.1,4.1
		c-0.3,1.3-1,2.4-1.5,3.7c-0.4,0.9-0.7,1.7-1,2.6c1,0,2.4,0.4,3-0.2c1.1-0.9,1.9-2.2,2.4-3.5s0.4-2.8,0.6-4.3c-0.1,0-0.1,0-0.2,0
		C681.5,963.1,681.7,962.2,681.4,961.4z"/>
	<path class="st0" d="M772.7,873.5c1.8-0.9,3.2-1.5,4.5-2.4c0.4-0.3,0.4-1.5,0.1-2.1c-0.2-0.3-1.3-0.3-2-0.2
		c-0.9,0.2-1.7,0.8-2.5,0.8c-1.3,0.1-2.8,0.1-2.6,1.7C770.2,872.1,771.7,872.7,772.7,873.5z"/>
	<path class="st0" d="M593.8,784.4c0,3.7-1.2,6.9-3.6,9.7c-1.7,2-3.5,3.9-5.4,5.7c5.1,12.5,10.3,25,15.4,37.4
		c4.2-2.6,8-5.3,12.1-7.5c14.1-7.6,29.6-10.8,45.4-12.5c13.6-1.4,27.3-2.5,41.2-3.8c-1,2.4-2.1,5-3.3,7.8c0.3-0.1,0.5-0.2,0.7-0.3
		c11.2-8.6,23.1-16.2,35.5-23.1c23.8-13.2,48.1-25.1,74.1-33.4c9.5-3,19-5.7,28.9-6.8c2.2-0.2,3.7-1.1,5.4-2.5
		c4.6-3.7,9.2-7.6,14.4-10.5c13.9-7.7,29-9.6,44.7-7.6c10,1.3,19,5.1,25.9,12.7c0.4,0.4,1,0.8,1.6,0.8c3,0.4,5.3,2,7.4,4.1
		c4.1,4.1,8.1,8.2,12.3,12.2c4,3.9,8.8,6.6,14.4,7.6c6.5,1.1,12.3,3.8,17.6,7.4c22.1,15,39.8,34.4,55.6,55.6
		c2.8,3.8,3.6,8.3,3.5,13.1c0,1.8,0.1,3.7,0.6,5.4c2.5,9,0.4,16.8-7.1,22.6c-3.9,3-8.4,5.4-11.4,9.6c-0.1,0.2-0.4,0.3-0.6,0.4
		c-4,3.1-8.7,3.5-13.5,3.1c-6.8-0.6-13.6-1.5-20.4-2c-5.3-0.4-10.7-0.5-16-0.3c-4.2,0.2-7.1,2.8-8.4,6.8c-2,5.8-2.5,11.9-1.5,17.9
		c0.6,4.2,2.4,8.2,3.3,12.3c2.7,11.8,2.1,23.7,1.2,35.7c-0.6,8-2,15.9-2.5,24c-0.9,15.4-3.1,30.3-8,45.1
		c-11,33.6-29.3,62.5-54.9,87.2c-0.4,0.4-0.8,0.8-1.3,1.5c0.9,0.1,1.5,0.1,2.1,0.2c44.2,0.1,88.4,0.2,132.5,0.2c1,0,2.3-0.5,3.1-1.2
		c10.8-10.1,21.4-20.2,32.1-30.4c0.7-0.7,1.2-2,1.2-2.9c0.1-61.9,0.1-123.8,0.2-185.8c0.1-57.3,0.2-114.7,0.3-172c0-0.9,0-1.8,0-2.8
		c-1.2,0-2,0-2.8,0c-41.8-0.3-83.5-0.6-125.3-0.9c-50.4-0.3-100.8-0.6-151.2-0.8c-53.4-0.2-106.9-0.2-160.3-0.2
		c-11.8,0-23.6,0.2-35.4,0.3c0.1,0.9,0.2,1.7,0.2,2.7C594,745.7,593.9,765.1,593.8,784.4z"/>
	<path class="st0" d="M832.1,940.5c2.4,4.2,4.9,8.3,7.3,12.5c1.8,3.2,1.6,4.7-1,7.3c-0.5,0.5-1.3,1-1.6,1.6c-0.3,0.5-0.3,1.4,0,1.8
		c0.3,0.4,1.3,0.7,1.8,0.6c2.1-0.6,5.8-5.7,5.8-8.5c-0.3-0.6-0.6-1.8-1.2-2.8c-2.1-3.7-4.3-7.3-6.4-10.9c-0.8-1.5-1.5-3-2.5-4.4
		c-0.4-0.5-1.5-0.8-2.1-0.6c-0.4,0.1-0.7,1.2-0.7,1.9C831.4,939.5,831.9,940,832.1,940.5z"/>
	<path class="st0" d="M838.7,883.6c1.1,0.3,2.5,0.3,3.5-0.2c3.1-1.6,3.8-5.2,1.6-8c-0.9-1.2-2-3-3.7-1.8c-1.8,1.3,0.1,2.4,0.8,3.5
		c0.4,0.7,0.5,1.8,0.3,2.7c-0.1,0.4-1,0.7-1.6,1.1c-0.2-0.2-0.3-0.4-0.5-0.7c-0.6,0.4-1.7,0.9-1.7,1.3
		C837.5,882.3,838.1,883.5,838.7,883.6z"/>
	<path class="st0" d="M831.7,934.4c0.8-1.1-3.3-8-5.4-8.1c-0.2,0.6-1,1.6-0.8,2.2c0.9,2.1,2.2,4,3.4,5.9
		C829.8,935.6,830.9,935.5,831.7,934.4z"/>
	<path class="st0" d="M481.2,853.9c-1.2,0.9-2.2,1.7-3.2,2.5c6.4,8.6,27.4,16.5,34.2,12.6C499.3,868.5,489.5,862.6,481.2,853.9z"/>
	<path class="st0" d="M761.7,952.6c1.7,0,1.6-1.3,1.6-2.5c0-5.9,0-11.8,0-17.7c0-6,0-11.9,0-17.9c0-1.2,0.1-2.5-1.6-2.5
		c-1.7,0-1.7,1.3-1.7,2.5c0,11.8-0.1,23.7-0.1,35.5C760,951.2,760,952.6,761.7,952.6z"/>
	<path class="st0" d="M773.4,973.9c1.8-0.9,3.3-1.4,4.7-2.3c0.4-0.3,0.4-1.5,0.1-2.2c-0.1-0.3-1.3-0.3-2-0.2
		c-0.9,0.2-1.8,0.8-2.8,0.9c-1.3,0.1-2.6,0.2-2.3,1.7C771.3,972.6,772.5,973.1,773.4,973.9z"/>
	<path class="st0" d="M548.3,787.7c-4.8,0.1-9.5-2-13.5-6.2c-0.6-0.6-1-1.7-1-2.6c0-9.1,0-18.3,0-27.4l-3.5-8.7c0,0.1,0,0.3,0,0.4
		c0,3.3,0,6.6,0,9.9c0,3.4,0.1,6.7-0.1,10.1c0,0.8-0.8,1.5-1.3,2.3c-0.5-0.8-1.4-1.6-1.4-2.4c-0.1-6.7-0.1-13.3,0-20
		c0-0.8,0.8-2.4,1.3-2.4c0.3,0,0.5,0,0.6,0l-9.9-24.7c0,26.6-0.1,53.2-0.1,79.8c0,5.9,0,11.8,0,17.7c0,3.9,2.5,7,6.1,8
		c5.5,1.4,10.5-2.4,10.6-8.4c0.1-4.6,0-9.1,0-14.2c4.7,3.4,9.5,4.8,14.6,4.6c1.3,0,2.5-0.1,3.7-0.3L548.3,787.7z M529.9,815
		c-0.6,1.4-1.6,2.7-2.6,3.8c-0.4,0.4-1.6,0-2.4,0c0.3-0.7,0.3-1.7,0.8-2.1c1.8-1.7,1.7-4,1.8-6.1c0.1-1.4-1-3.6,1.4-3.6
		c2.1,0,1.1,2.3,1.4,3.5c0.1,0.2,0,0.5,0,0.7h0.1C530.2,812.5,530.4,813.9,529.9,815z M528.8,804.4c-0.5-0.8-1.3-1.5-1.4-2.3
		c0-0.7,0.8-1.5,1.3-2.2c0.6,0.7,1.2,1.4,2.1,2.3C530,803.2,529.4,803.8,528.8,804.4z"/>
	<path class="st0" d="M866.8,956.1c0,0.7,0.9,1.9,1.5,2.1c1.5,0.3,1.6-0.9,1.6-2.1c0-3.7,0-7.3,0-11s0-7.5,0-11.2
		c0-1.2-0.2-2.4-1.6-2.2c-0.6,0.1-1.5,1.3-1.5,2C866.7,941.1,866.7,948.6,866.8,956.1z"/>
	<path class="st0" d="M873,875.5c-0.1,0-0.1,0-0.2,0c0,12.7-0.1,25.1-0.1,37.6c9.8,0,19.4,0,29.2,0.1c0-0.2,0-0.4,0-0.5
		c-9.8,0-19.3,0-29-0.1C872.9,900.3,873,888,873,875.5z"/>
	<path class="st0" d="M557.7,725c1.1,0,2.2,1.3,3.2,2.3c0.9,0.9,1.5,2.2,1.5,3.4c0.1,5,0.1,9.9,0,14.9c3.5,8.5,7,17,10.5,25.5
		c0-3.5,0-7,0.1-10.4c0-0.6,0.9-1.3,1.4-1.9c0.4,0.7,1.2,1.3,1.3,2.1c0.2,2.4,0.1,4.9,0,7.3c0,2.5,0.1,5-0.1,7.5
		c0,0.3-0.2,0.6-0.5,0.9c1.5,3.7,3.1,7.5,4.6,11.2c0.3-0.3,0.5-0.7,0.7-1c0.7-1.1,1-2.6,1-3.9c0.1-19.3,0.1-38.6,0.1-57.8
		c0-0.3,0-0.3-0.1-0.6C573.7,724.4,565.7,725,557.7,725L557.7,725z"/>
	<path class="st0" d="M870,903.9c-0.1-0.6-0.9-1.2-1.4-1.7c-0.6,0.6-1.6,1.1-1.7,1.7c-0.2,2.7-0.2,5.5,0,8.2c0,0.7,1,1.2,1.5,1.9
		c0.5-0.6,1.4-1.2,1.5-1.9c0.2-1.3,0.1-2.7,0.1-4.1C870,906.7,870.2,905.3,870,903.9z"/>
	<path class="st0" d="M869.8,962c-0.1-0.6-1-1.5-1.3-1.4c-0.6,0.1-1.6,0.8-1.7,1.3c-0.3,1.2,0.1,2.6-0.2,3.9
		c-0.4,1.6-1.2,3.1-1.8,4.7c-0.3,0.8-0.4,1.7-0.6,2.6c0.8,0,2,0.3,2.5-0.1c1.1-0.9,2.1-2,2.6-3.3c0.6-1.4,0.5-3,0.7-4.5
		c-0.1,0-0.1,0-0.2,0C869.9,964.1,870.1,963,869.8,962z"/>
	<path class="st0" d="M868.4,895.3c-1.7-0.2-1.5,1.3-1.5,2.4c0,1.2,0.1,2.6,1.7,2.3c0.8-0.1,1.3-1.4,2.4-2.6
		C869.8,896.5,869.2,895.4,868.4,895.3z"/>
	<path class="st0" d="M969.6,885c8.2-0.6,16.3,0.6,24.4,1.6c6.4,0.9,12.8,1.3,19.2-0.2c1.1-0.3,2.2-0.7,3-1.5c4.2-3.6,8-7.7,12.4-11
		c5.2-3.9,6.1-8.9,5.3-14.6c-0.5-3.7-1.2-3.9-4.8-3.6c-0.8,0.1-1.5,0.2-2.3,0.3c-4,0.3-7.9,0-11.6-1.9c-4.5-2.3-6.7-8.2-4.8-12.6
		c5.9,6.1,12.6,10.2,21.5,9.2c0.9-3.5,0.3-6.5-1.6-9.3c-1.5-2-3.2-3.9-4.7-5.9c-9.5-13.3-19.8-25.9-32.3-36.7
		c-10.8-9.3-22.5-17.1-36.6-20.8c-5.3-1.4-9.5-4-13.2-7.8c-3.2-3.3-6.3-6.8-9.7-10c-2.3-2.2-5.1-3.9-7.8-5.7
		c-1.7-1.2-3.4-2.2-5.1-3.3c-1.7-1.1-3.4-2.3-5.1-3.4c0.7,2.6,2,4.5,2.7,6.6c4.6,13.3-4.1,28.7-18,32.2c-2.8,0.7-5.5,1.5-8.3,2.3
		c-3.6,1.2-6.3,3.5-8,6.9s-2,7-1.3,10.7c1.8,9.4,6,17.3,16,20.1c4.1,1.2,8.6,1.3,12.9,1.1c9.1-0.5,16.4-4.7,21.8-12
		c1.8-2.5,2.5-5.3,1.6-8.3c-0.4-1.4-1-3.3-3-2.8c-1.9,0.4-2.6,2.1-2.4,4c0.1,1.1,0.7,2.2,1,3.3c-4.2,1.1-8.2,1.2-11.6-2
		c-4.3-4-4.9-12-1.4-16.7c5.6-7.4,18.8-9.5,26.5-4.2c5.5,3.8,9.5,8.6,12.1,14.7c0.3,0.7,1,1.3,1.6,1.8c3.8,3,7.8,5.8,11.3,9.1
		c2.3,2.1,4,4.9,5.9,7.4c-0.1,0.1-0.3,0.3-0.4,0.4c-5.2-1.5-10.4-3-15.9-4.6c-0.2,11.6-4.6,21.3-11,30.2
		c-6.4,9.1-15.8,14.9-25.7,20.4c8.3,4.6,12.1,11.9,14.7,20c1.6,4.9,3,10,4.5,14.9c1.7,5.7,3.8,11.2,8.3,15.4c1.3,1.2,2.9,2,4.4,3.1
		c0.2-0.2,0.3-0.3,0.5-0.5c-0.5-1.9-1.2-3.8-1.6-5.7c-1.5-8.9-1.5-17.6,3.5-25.6c1.7-2.6,3.7-4.4,7-4.7
		C965.7,885.4,967.6,885.1,969.6,885z"/>
	<path class="st0" d="M914.5,951c-2.4,0-1.6,2.2-1.6,3.5c0,1.4-0.9,3.7,1.6,3.6c0.7,0,1.4-2.1,2.1-3.2
		C915.7,953.2,916.9,951,914.5,951z"/>
	<path class="st0" d="M954.1,814.9c-0.2-10.5-5.4-18.7-15.2-23.6c-6.4-3.2-14.8-0.8-18.2,5.1c-2.3,4,0.1,10.4,4.5,11.6
		c-0.8-2.4-0.3-4.6,1.4-6.4c3.9-4,10-2.9,12.5,2.4c2.9,6.2,1.1,11.8-3,16.8c-1.3,1.6-2.4,2.9-1.2,5c0.2,0.3-0.1,0.8-0.2,1.5
		c-1.1-0.6-1.9-1.1-2.8-1.5c-2.3,1.5-4.9,2.8-3,6.3c0.2,0.3,0,0.8-0.1,1.3c-0.2,0.1-0.4,0.3-0.6,0.4c-0.8-1.2-1.6-2.3-2.4-3.5
		c-1.5,0.7-2.4,1.3-3.4,1.5c-1.8,0.4-2.4,1.3-2.3,3.1c0,1.1-0.3,2.2-0.5,3.3c-0.3,0-0.5,0-0.8,0c-0.8-1.5-1.5-3.1-2.3-4.6
		c-1.9,0.3-3.6,0.5-4.9,0.8c-1.2,2.4-2.3,4.6-3.3,6.7c-0.3-0.1-0.6-0.2-0.9-0.3c0-2.1,0-4.3,0-6.3c-2.3-0.4-4.2-0.7-5.7-1
		c-1.8,2.1-3.4,4-5,5.9c-0.2-0.1-0.5-0.3-0.7-0.4c0.2-1.1,0.4-2.1,0.7-3.2c0.3-1.1,0.7-2.1,1.1-3.3c-1.7-0.7-3.3-1.4-4.9-2.1
		c-1.1,2.4-5.5,5-8.8,4.9c1.9-2.6,3.6-5,5.4-7.5c-1-0.8-2.1-1.8-3.2-2.7c-2.6,2.9-6,3.4-9.4,3.8c-0.2-0.2-0.3-0.5-0.5-0.7
		c2.5-1.9,4.9-3.8,7.5-5.8c-0.5-0.6-1-1.3-1.5-2c0,0.2,0,0.5,0,0.7c-3.2,0.5-6.4,0.9-9.5,1.4c-0.1-0.4-0.2-0.7-0.3-1.1
		c2.7-1.2,5.3-2.4,8.2-3.6c-0.7-1-1.5-2-2-2.7c-3.5,0.3-6.6,0.6-9.7,0.8c-0.1-0.3-0.1-0.6-0.2-1c2.8-1.1,5.7-2.3,8.6-3.4
		c-0.2-0.9-0.5-1.9-0.6-2.3c-3.4-0.6-6.3-1.1-9.2-1.6c0-0.3,0-0.7,0.1-1c2.8-0.4,5.6-0.7,8.5-1.1c0-0.9,0-2,0-2.7
		c-3.9-0.3-6.9-1.9-9.8-3.8c0.1-0.3,0.1-0.6,0.2-0.9c3.4,0.4,6.7,0.8,10.3,1.2c0.1-0.6,0.3-1.4,0.5-1.9c-3.2-1.9-6.1-3.6-9.1-5.4
		c0.1-0.3,0.3-0.6,0.4-0.9c3.2,0.9,6.5,1.7,9.7,2.6c0.5-0.7,1-1.5,1.4-2.2c-2.4-0.5-5.5-3.5-6.5-6.9c2.7,1.5,5.4,2.9,8.2,4.4
		c0.7-0.7,1.4-1.5,2-2.3c-2.8-2.1-4.6-4.7-5.9-8.4c3.8,1.6,6,4,7.7,7c1.3-0.6,2.4-1.2,3.7-1.8c-2.7-1.7-2.7-4.3-3.2-6.7
		c0.3-0.2,0.5-0.3,0.8-0.5c1.5,2.1,3,4.2,4.7,6.5c1.8-0.4,4-1,6.3-1.4c11.6-2,18.9-12.6,16.2-24c-1.9-8.2-7.8-12.7-15.6-14.7
		c-6.8-1.8-13.8-1.4-20.6-0.4c-22.7,3.1-39,14.9-48.4,35.6c-5.2,11.5-8,23.5-5.7,36.2c3.8,20.7,15.8,35.8,33.5,46.9
		c0.7,0.4,2.1,0.4,2.8,0c5.3-2.7,11.1-0.3,12.4,5.4c0.3,1.3,0.8,1.9,2.2,2.2c8,2.1,16,3.1,24.2,2.3c3.2-0.3,3.2-0.2,3.4-3.3
		c0.3-3.7,2.7-6.6,6.5-7.5c3.4-0.8,7.1,0.9,8.9,4.1c0.3,0.5,0.5,1.1,0.9,1.8c2.6-1.3,5.2-2.5,7.7-3.9
		C944.7,851.8,954.5,836.1,954.1,814.9z"/>
	<path class="st0" d="M916.1,964.4c-0.3-1.4,0.8-3.8-1.6-3.8c-2.6,0-1.5,2.3-1.6,3.7c-0.2,2.4,0.1,4.9-2.4,6.5
		c-0.4,0.2-0.4,1.4-0.1,2c0.2,0.4,1.5,0.7,1.7,0.5c1.3-1.1,2.7-2.3,3.4-3.7c0.7-1.3,0.5-2.9,0.8-4.4c-0.1,0-0.1,0-0.2,0
		C916.1,964.9,916.1,964.7,916.1,964.4z"/>
	<path class="st0" d="M467.9,727c4.6-4.8,10.1-7.6,17.1-6.3c5.6,1.1,9.5,4.6,12.8,8.9c2.8,3.8,8.1,4.5,11.8,1.9
		c3.7-2.6,4.4-7.8,1.8-11.7c-14.8-21.3-44.3-21.4-59,0c-1,1.4-1.7,3.4-1.7,5.1c-0.2,8.3-0.2,16.7,0,25c0,1.8,0.8,3.8,1.9,5.2
		c2,2.7,4.4,5.1,6.6,7.5c-2,2.2-4,4.3-5.9,6.5c-1.8,2.1-2.8,4.4-2.7,7.3c0.1,8,0.1,15.9-0.1,23.9c-0.1,3.4,0.9,6.1,3.1,8.6
		c1,1.2,2,2.4,3,3.5c16.2,16.4,41.2,14.2,55-5.5c2.6-3.7,1.4-9-2.2-11.4c-3.7-2.5-8.6-1.7-11.5,1.8c-0.9,1.1-1.7,2.2-2.6,3.2
		c-7.6,8.2-19.1,8.4-26.7,0.3c-0.7-0.7-1.2-2-1.2-3c-0.1-5.9-0.1-11.8,0-17.7c0-1.1,0.6-2.4,1.3-3.2c3.9-4,8.7-6.1,14.4-5.9
		c2.1,0.1,4.2,0,6.3,0c4.9,0,8.5-3.4,8.6-8c0.1-4.8-3.5-8.4-8.4-8.5c-2.5-0.1-5,0-7.5,0c-5.6,0-10-2.4-13.7-6.3
		c-0.6-0.6-0.9-1.6-0.9-2.4c-0.1-5.6,0-11.2,0-16.8C467.3,728.3,467.5,727.4,467.9,727z M501.3,727.4c1.8,0.5,2.8-1.1,2.3-2.5
		c-0.2-0.5-0.7-1-1.1-1.5c-0.8-0.8-1.8-1.7-0.5-2.6c0.5-0.3,1.9,0.1,2.5,0.6c3,2.6,2.9,6.4-0.3,8.5c-0.8,0.5-1.9,0.8-2.8,0.6
		c-0.7-0.2-1.3-1.2-1.9-1.9C500.1,728.3,500.7,727.8,501.3,727.4z M500.6,799.2c1.1-0.2,2.7-0.4,3.4,0.3c1.3,1.1,2.1,2.8,3.4,4.5
		c-1.3,1.8-2.3,3.3-3.5,4.6c-0.3,0.4-1.3,0.1-2,0.1c0-0.7-0.1-1.5,0.2-2.1c0.3-0.6,1.1-1,1.3-1.6c0.2-0.8,0.3-1.8-0.1-2.5
		c-0.2-0.4-1.3-0.5-2-0.7c-0.6-0.3-1.3-0.6-1.9-0.9C499.8,800.3,500.2,799.3,500.6,799.2z M486.2,816.6c2.4-1.2,5-2,7.4-3.3
		c1.6-0.8,2.9-2.1,4.4-3c0.4-0.3,1.5-0.2,1.8,0.1s0.4,1.4,0.1,1.7c-3.8,3.6-8.5,5.7-13.8,7.3c-0.3-0.4-1.1-0.9-1.1-1.3
		C485,817.6,485.6,816.8,486.2,816.6z M458.7,738.4c-0.2-1.6-0.2-3.2,0-4.8c0.1-0.5,0.9-1,1.4-1.5c0.5,0.5,1.1,0.9,1.3,1.5
		c0.2,0.7,0.1,2.3,0,2.3l0,0c0,1,0.2,1.7-0.1,2.5c-0.2,0.6-0.9,1.1-1.5,1.3C459.6,739.8,458.8,738.9,458.7,738.4z M458.9,784.3
		c0-0.5,0.9-1,1.4-1.5c0.5,0.5,1.2,1,1.3,1.6c0.2,1.4,0.1,2.9,0.1,4.3c0,1.4,0.1,2.8-0.1,4.1c-0.1,0.5-0.8,0.9-1.2,1.4
		c-0.5-0.5-1.4-0.9-1.4-1.4C458.7,790,458.7,787.1,458.9,784.3z M460.2,799.8c-0.5-0.6-1.3-1.2-1.4-1.9c0-0.5,0.9-1.1,1.4-1.7
		c0.5,0.5,1.1,1,2,1.8C461.3,798.8,460.8,799.3,460.2,799.8z M486.1,766.6c0.9-0.1,1.7-0.6,2.5-0.8c0.6-0.1,1.2,0,1.8,0.1
		c0,0.7,0.2,1.7-0.2,1.9c-1.2,0.8-2.6,1.4-4.2,2.2c-1-0.7-2.3-1.1-2.4-1.8C483.5,766.6,485,766.8,486.1,766.6z"/>
	<path d="M543.7,698.9c2.7-0.7,5.3-1.1,7.8-1.3c-3.5,0-7.1,0-10.6,0c0.4,0.9,0.6,1.5,0.7,1.7C542.5,699.1,543.1,699,543.7,698.9z"/>
	<path d="M844.9,962.6c3.4-4.2,3.6-7.1,0.8-11.8c-7.7-13.1-15.3-26.2-23-39.3c-6.2-10.6-12.4-21.2-18.6-31.8
		c7.3-6.9,16.7-7.4,24.2-1.1c1.9,1.6,3.4,3.6,5,5.4c2.9,3.3,7.6,3.9,11.1,1.3c3.4-2.5,4.5-7.1,2.1-10.6c-7-10.3-16.6-16.6-29.4-16.7
		c-12.4-0.1-22.2,5.5-29.6,15.1c-2.6,3.4-2.8,6.8-0.6,10.4c6.3,10.4,12.6,20.8,18.8,31.3c5.7,9.7,11.4,19.5,17.1,29.2
		c2.2,3.8,4.4,7.5,6.6,11.4c-4.7,4.5-10,6.5-16.3,5c-5.5-1.2-9.7-4.5-13.1-9c-2.8-3.7-7.8-4.4-11.4-1.9c-3.5,2.5-4.6,7.5-2.1,11
		c7.5,10.7,17.7,16.7,31,16.4C829,976.9,837.9,971.4,844.9,962.6z M839.3,880.3c0.2,0.2,0.3,0.4,0.5,0.7c0.5-0.4,1.5-0.6,1.6-1.1
		c0.2-0.9,0.1-2-0.3-2.7c-0.7-1.2-2.7-2.2-0.8-3.5c1.7-1.2,2.8,0.6,3.7,1.8c2.1,2.8,1.4,6.4-1.6,8c-0.9,0.5-2.4,0.4-3.5,0.2
		c-0.6-0.1-1.2-1.3-1.1-2C837.6,881.2,838.6,880.7,839.3,880.3z M832.1,937.1c0.6-0.2,1.7,0.1,2.1,0.6c1,1.3,1.7,2.9,2.5,4.4
		c2.1,3.6,4.3,7.3,6.4,10.9c0.6,1,1,2.2,1.2,2.8c0,2.8-3.7,7.9-5.8,8.5c-0.5,0.1-1.5-0.1-1.8-0.6c-0.3-0.4-0.2-1.3,0-1.8
		c0.3-0.6,1.1-1.1,1.6-1.6c2.6-2.6,2.9-4.1,1-7.3c-2.4-4.2-4.9-8.4-7.3-12.5c-0.3-0.5-0.7-1-0.7-1.4
		C831.5,938.4,831.7,937.3,832.1,937.1z M829,934.5c-1.3-1.9-2.5-3.9-3.4-5.9c-0.3-0.6,0.5-1.6,0.8-2.2c2.1,0.1,6.1,7,5.4,8.1
		C830.9,935.5,829.8,935.6,829,934.5z"/>
	<path d="M726.3,870.9c-7.7-8.8-17.2-13.8-29.2-13.1c-11.3,0.7-20.2,6.2-26.7,15.2c-1.3,1.7-2.1,4.2-2.1,6.3
		c-0.3,8.6-0.3,17.1-0.1,25.7c0,2.1,0.9,4.4,2,6.1c1.8,2.7,4.2,5,6.3,7.5c-2.1,2.4-4.4,4.7-6.3,7.2c-1.1,1.4-2,3.3-2.1,5
		c-0.2,12.2-0.3,24.5-0.1,36.7c0.1,5.5,5.5,9,10.7,7.4c3.5-1.1,5.6-4.1,5.6-8.4c0-10.2,0-20.4,0.1-30.5c0-1.2,0.7-2.7,1.5-3.6
		c3.9-3.9,8.5-6,14.2-5.8c2.4,0.1,4.8,0.1,7.2,0c4.6-0.3,7.8-3.8,7.8-8.2c-0.1-4.4-3.6-7.9-8.2-8c-2.5-0.1-5-0.1-7.5,0
		c-5.8,0.1-10.3-2.4-14.1-6.5c-0.5-0.6-0.9-1.6-0.9-2.5c-0.1-6.2,0-12.4,0-18.6c0-0.8,0.2-1.7,0.7-2.3c4-5.2,11.7-7.8,18.2-6.1
		c5.1,1.3,8.8,4.5,11.7,8.6c2.1,2.9,5,4.1,8.5,3.5c5.5-0.9,8.7-6.8,6-11.5C728.9,873.6,727.5,872.3,726.3,870.9z M681,968.2
		c-0.5,1.3-1.3,2.6-2.4,3.5c-0.6,0.5-2,0.1-3,0.2c0.3-0.9,0.6-1.7,1-2.6c0.5-1.2,1.2-2.4,1.5-3.7s-0.1-2.8,0.1-4.1
		c0.1-0.7,0.9-1.3,1.4-2c0.6,0.6,1.4,1.2,1.7,1.9s0.1,1.6,0.1,2.5c0.1,0,0.1,0,0.2,0C681.4,965.4,681.5,966.9,681,968.2z
		 M679.8,957.5c-1.5,0.2-1.7-1.2-1.6-2.4c0-1.2,0-2.6,1.6-2.4c0.8,0.1,1.4,1.3,2.6,2.4C681.2,956.2,680.6,957.4,679.8,957.5z
		 M706.4,921.3c0.9-0.1,1.7-0.6,2.6-0.8c0.7-0.1,1.5,0.1,2.3,0.1c-0.1,0.8,0,2-0.5,2.4c-1.2,0.8-2.7,1.3-4.4,2
		c-0.9-0.7-2.2-1.3-2.3-2C703.7,921.4,705.1,921.4,706.4,921.3z M724.7,883.3c-0.9,0.5-2.1,0.7-3.1,0.5c-0.7-0.2-1.5-1.2-1.7-2
		c-0.1-0.4,1.2-1.1,1.8-1.6c0.2,0.2,0.4,0.5,0.6,0.7c0.5-0.4,1.4-0.8,1.5-1.3c0.1-0.8,0-1.8-0.4-2.5c-0.8-1.1-2.7-2.2-0.8-3.5
		c1.7-1.2,2.8,0.7,3.7,1.8C728.4,878.1,727.7,881.6,724.7,883.3z"/>
	<path d="M774.5,875.4c4.4-0.4,7.6-4.1,7.4-8.3c-0.1-4.2-3.6-7.8-7.9-7.8c-11.2-0.1-22.4-0.2-33.6-0.1c-5.2,0.1-8.8,4.8-7.8,9.8
		c0.8,3.8,4.1,6.3,8.5,6.4c2.5,0.1,5.1,0,7.6,0c-0.1,28.2-0.1,55.9-0.2,83.8c-2.6,0-5,0-7.4,0c-5.1,0-8.8,3.4-8.9,8.1
		c-0.1,4.8,3.6,8.3,8.9,8.3c10.6,0,21.1,0.1,31.7,0.1c5.1,0,8.8-3.4,8.9-8.1c0.1-4.7-3.8-8.3-8.9-8.3c-2.5,0-4.9,0-7.5,0
		c0.1-28,0.1-55.7,0.2-83.9C768.7,875.4,771.6,875.6,774.5,875.4z M772.8,869.6c0.8,0,1.6-0.7,2.5-0.8c0.7-0.1,1.8-0.1,2,0.2
		c0.3,0.6,0.3,1.8-0.1,2.1c-1.2,0.9-2.7,1.5-4.5,2.4c-1-0.8-2.5-1.4-2.6-2.2C770,869.8,771.5,869.7,772.8,869.6z M773.4,970.1
		c0.9-0.1,1.8-0.7,2.8-0.9c0.7-0.1,1.9-0.1,2,0.2c0.3,0.6,0.3,1.9-0.1,2.2c-1.3,0.9-2.9,1.5-4.7,2.3c-1-0.8-2.2-1.3-2.3-2
		C770.8,970.3,772.2,970.3,773.4,970.1z M760.1,914.5c0-1.2,0-2.5,1.7-2.5s1.6,1.3,1.6,2.5c0,6,0,11.9,0,17.9c0,5.9,0,11.8,0,17.7
		c0,1.2,0.1,2.5-1.6,2.5c-1.7,0-1.6-1.3-1.6-2.5C760.1,938.2,760.1,926.4,760.1,914.5z M761.5,959.5c-1.6,0.1-1.5-1.4-1.5-2.5
		c0-1.2,0.2-2.6,1.8-2.3c0.8,0.2,1.3,1.4,2.4,2.7C763,958.4,762.3,959.5,761.5,959.5z"/>
	<g>
		<path class="st0" d="M373.3,825.8c-2.3,1.5-2.4,3.4-2,5.9c1,5.6,0.7,11.3-0.3,16.9c-2.5,12.9-9.5,23.2-18.6,32.3
			c-0.6,0.6-1.2,1.2-1.8,1.9c18.9-8.2,32-40.7,23.7-58.5C373.9,824.9,373.7,825.5,373.3,825.8z"/>
		<path class="st0" d="M358.7,821.2c4.1-1.3,6.2-4,6.2-8.1c0.1-31.5,0.1-63.1,0.2-94.6c0-1.9,0.1-3.8,0-5.7c-0.2-3-1.5-5.5-4.4-6.7
			c-7-3-12.8,0.7-12.8,8.2c0,13.7-0.1,27.4-0.1,41.1c0,0.9,0,1.8,0,2.8c-9.6,0-18.9,0-28.6-0.1c0-1.1,0-2,0-2.9
			c0-13.9,0.1-27.9,0.1-41.8c0-4.9-3.6-8.5-8.5-8.5c-4.8,0-8.3,3.6-8.3,8.5c0,8.3,0,16.7-0.1,25c0,24.7-0.1,49.4-0.2,74.1
			c0,3,0.9,5.6,3.5,7.4c2.7,1.9,5.6,2.2,8.6,0.7c3.2-1.6,4.8-4.3,4.8-7.8c0-11.8,0.1-23.6,0.1-35.4c0-0.9,0-1.8,0-2.5
			c9.8,0,19.1,0,28.6,0.1c0,1.1,0,2,0,3c0,11.4-0.1,22.8,0,34.2c0,2,0.6,4.1,1.5,5.8C351.1,821.2,355.1,822.3,358.7,821.2z"/>
		<path class="st0" d="M395.3,726.9c3.3-4.6,11.4-7.6,17.1-6.3c5.5,1.2,9.4,4.5,12.7,8.8c3,4,8.8,4.8,12.6,1.9
			c3.7-2.8,4.3-8.1,1.1-12.1c-1.2-1.6-2.7-2.9-4.1-4.3c-16.5-16.7-41.8-14.5-55,4.9c-0.9,1.4-1.6,3.2-1.6,4.9
			c-0.2,8.4-0.2,16.8,0,25.3c0,1.7,0.8,3.6,1.8,5c2,2.7,4.4,5.1,6.6,7.6c-2.1,2.3-4.2,4.6-6.2,6.9c-1.8,2-2.4,4.3-2.4,7
			c0.1,8.3-0.1,16.7,0.1,25c0,1.8,0.6,3.9,1.6,5.4c4,6,9.3,10.7,16.1,13.5c16.8,7,32.2,0.6,43.1-12.6c3.3-4,2.6-9.6-1.3-12.2
			c-4-2.6-9.4-2.3-12.6,2.1c-0.7,1-1.5,1.9-2.4,2.8c-7.7,8.1-18.9,8.2-26.5,0.2c-0.7-0.7-1.2-1.8-1.2-2.8c-0.1-6.1-0.1-12.2,0-18.4
			c0-0.8,0.3-1.7,0.8-2.2c3.8-4,8.4-6.4,14.2-6.4c2.4,0,4.8,0,7.2,0c4.8,0,8.3-3.4,8.4-8c0.1-4.7-3.4-8.4-8.2-8.5
			c-2.3-0.1-4.7-0.1-7,0c-5.6,0.1-10.3-2-14.1-6c-0.7-0.7-1.2-2-1.3-3c-0.1-5.4-0.1-10.9,0-16.3
			C394.8,728.3,394.9,727.5,395.3,726.9z"/>
		<path class="st0" d="M464.4,866.3c-2.5-2.3-2.9-2.3-5.2,0.4c21.1,19.6,45.2,19.8,59.2,12c-4,0.5-7.6,1.1-11.2,1.4
			C491.2,880.9,476.6,877.1,464.4,866.3z"/>
		<path class="st0" d="M484.7,891.5c-13.9-1.9-25.9-7.7-35.8-17.5c-0.4-0.4-1.3-0.8-1.7-0.6c-1.7,0.8-3.3,1.8-5,2.8
			c27.6,23.5,61.7,24.2,83.7,11.4c-5.8,1.2-11.5,2.5-17.3,3.4C500.7,892.3,492.7,892.5,484.7,891.5z"/>
		<path class="st0" d="M316.6,830.9c-0.1,0-0.1,0.1-0.3,0.2c0.9,1.6,1.9,3.3,2.7,4.9c7.7,14.9,5.4,28.2-6.7,39.9
			c-6.1,5.8-13.3,10.1-20.9,13.5c-0.9,0.4-1.9,0.9-2.8,1.3c0.1,0.2,0.2,0.4,0.2,0.6c1.7-0.4,3.3-0.9,5-1.4
			c7.6-2.3,14.6-5.6,20.7-10.6c14.8-11.9,16.2-29.6,9.2-44.9C321.7,829.9,321.6,830,316.6,830.9z"/>
		<path class="st0" d="M478.2,853.9c-1.2,0.9-2.2,1.7-3.2,2.5c6.4,8.6,27.4,16.5,34.2,12.6C496.3,868.5,486.5,862.6,478.2,853.9z"/>
		<path class="st0" d="M292.1,807.9c3-3.6,3.1-7.4,0.7-11.3c-2.1-3.3-4.3-6.6-6.3-10c-11.5-19.5-22.9-39.1-34.3-58.6
			c-0.5-0.9-1-1.8-1.5-2.7c6.3-6.6,16-7.2,23.2-1.4c2,1.6,3.6,3.7,5.4,5.7c3.1,3.5,8.3,4.1,12,1.4c3.8-2.8,4.4-7.6,1.6-11.6
			c-5-7.3-12.1-12.1-20.6-14.6c-1.8-0.5-3.6-0.9-5.4-1.1c-14.1-1.5-24.6,4.5-32.8,14.9c-2.7,3.4-2.9,6.9-0.7,10.6
			c6.5,11,12.9,22.1,19.4,33.2c7.5,12.8,15,25.7,22.5,38.6c-6.6,6.5-15.7,7.2-22.8,1.7c-2.2-1.7-3.9-3.9-5.7-6
			c-2.9-3.3-7.7-4.2-11.3-1.8c-3.5,2.3-5,7.5-2.6,11c6.9,10.1,16.2,16.5,28.8,16.9C274.4,823.3,284.2,817.4,292.1,807.9z"/>
		<path class="st0" d="M362.5,698.7c1-0.2,2.1-0.4,2.9-1c22.9-16.5,47-31.1,72.6-43.3c10.9-5.2,21.8-10.2,32.8-15.2
			c3.5-1.6,7-3,10.7-4.5c-0.6-1.5-1.1-2.6-1.6-4C456.9,636.2,376.4,682.7,362.5,698.7z"/>
		<path class="st0" d="M171.1,872.7c-4.3,0.5-8.5,6.4-5.8,10.6c1.4-1.1,2.6-2.2,3.9-3.3c1.4-1.1,2.9-2,4.1-3.3
			c0.6-0.7,1.1-2.3,0.7-3C173.6,873.1,172.1,872.6,171.1,872.7z"/>
		<path class="st0" d="M241.1,882.9c-2.7-2.4-6.1-4.3-9.6-5.4c-10.8-3.7-22-2.9-33.2-1c0.4,0,0.8,0.1,1.3,0.1
			c5.4,0.1,10.9,0,16.3,0.4c6.3,0.4,12.5,1.5,18.2,4.4c4.9,2.6,7.3,6.7,6.7,10.8c-0.7,4.2-3.9,7.1-8.9,8.2c-0.7,0.2-1.4,0.2-2.1,0.3
			c-1.6,0.1-3.2,0.2-4.8,0.4c5.1,1,10.1,0.8,14.6-2C245.8,895.1,246.7,887.9,241.1,882.9z"/>
		<path class="st0" d="M287.3,668.8c22.6-22.1,47.6-41.4,75.2-57.2c15-8.6,30.3-16.8,45.7-24.6c9.8-5,20.2-9,30.3-13.5
			c1.9-0.8,4-1.5,5.9-2.2c-0.1-0.3-0.1-0.6-0.2-0.9c-3.8,0.3-8.1-0.3-11.5,1.2c-22.1,9.4-43.9,19.2-65.9,28.9
			c-0.8,0.3-1.5,0.7-2.3,1c-5.4-7.9-8.5-16.6-10.1-25.7c-1.6-9-2.4-18.2-3.5-27.3c-0.7,0.6-0.9,1.3-1,1.9c-3.8,19.2-3,38.1,3.2,56.9
			c-2.6,1.6-5.1,3.1-7.5,4.5c-0.3,0.2-0.7,0.3-1.3,0.6c-9.7-20.2-13.1-41.4-12.2-63.5c-0.5,0.7-0.9,1.4-1.1,2.1
			c-4.4,13.5-5.1,27.4-3.8,41.3c0.8,9.2,2.6,18.3,3.9,27.4c0.1,0.6,0.1,1.5-0.3,1.8c-2.6,2.1-5.3,4.1-8.2,6.4
			c-4-11.5-5.8-23.2-7.1-34.8c-1.3-11.6-1.9-23.4-2.8-35.2c-0.4,0.6-1.1,1.2-1.3,1.9c-1,2.3-2.1,4.6-2.6,7.1
			c-2.5,11.2-3.4,22.5-3.7,33.9c-0.4,13.5-0.2,26.9-0.2,40.4c0,1.8-0.6,2.9-1.9,4.1c-6.5,6.2-13.1,12.2-19.2,18.6
			c-6.6,6.9-12.9,14.1-19.1,21.3c-3.8,4.3-7.3,8.9-11,13.6c3.9-0.2,6-1.1,7.6-2.8C270,686.9,278.3,677.6,287.3,668.8z"/>
		<path class="st0" d="M220.4,848.9c9.7-4.6,17.7-15.4,18.3-17.9c0.1-10-8.1-18-18.4-18c-10.5,0-18.7,7.9-18.7,18
			C201.7,841,209.9,848.9,220.4,848.9z"/>
		<path class="st0" d="M464.9,727c4.6-4.8,10.1-7.6,17.1-6.3c5.6,1.1,9.5,4.6,12.8,8.9c2.8,3.8,8.1,4.5,11.8,1.9
			c3.7-2.6,4.4-7.8,1.8-11.7c-14.8-21.3-44.3-21.4-59,0c-1,1.4-1.7,3.4-1.7,5.1c-0.2,8.3-0.2,16.7,0,25c0,1.8,0.8,3.8,1.9,5.2
			c2,2.7,4.4,5.1,6.6,7.5c-2,2.2-4,4.3-5.9,6.5c-2.3,2.7-3.2,5.7-2.5,9.8c1.1,6.2,1.1,12.5,0,18.7c-0.8,4.7,0.1,8.2,2.8,11.3
			c1,1.2,2,2.4,3,3.5c16.2,16.4,41.2,14.2,55-5.5c2.6-3.7,1.4-9-2.2-11.4c-3.7-2.5-8.6-1.7-11.5,1.8c-0.9,1.1-1.7,2.2-2.6,3.2
			c-7.6,8.2-19,8.4-26.6,0.3c-0.7-0.7-1.2-2.1-1.2-3c-0.1-5.9-0.1-11.8,0-17.7c0-1,0.6-2.5,1.3-3.2c3.9-4,8.7-6.1,14.4-5.9
			c2.1,0.1,4.2,0,6.3,0c4.9,0,8.5-3.4,8.6-8c0.1-4.8-3.5-8.4-8.4-8.5c-2.5-0.1-5,0-7.5,0c-5.6,0-10.1-2.4-13.8-6.4
			c-0.6-0.6-0.8-1.4-0.9-2.2c-0.1-5.6,0-11.3,0-16.9C464.3,728.3,464.5,727.4,464.9,727z"/>
		<path class="st0" d="M913.1,964.4c-0.3-1.4,0.8-3.8-1.6-3.8c-2.6,0-1.5,2.3-1.6,3.7c-0.2,2.4,0.1,4.9-2.4,6.5
			c-0.4,0.2-0.4,1.4-0.1,2c0.2,0.4,1.5,0.7,1.7,0.5c1.3-1.1,2.7-2.3,3.4-3.7c0.7-1.3,0.5-2.9,0.8-4.4c-0.1,0-0.1,0-0.2,0
			C913.1,964.9,913.1,964.7,913.1,964.4z"/>
		<path class="st0" d="M911.5,951c-2.4,0-1.6,2.2-1.6,3.5c0,1.4-0.9,3.7,1.6,3.6c0.7,0,1.4-2.1,2.1-3.2
			C912.7,953.2,913.9,951,911.5,951z"/>
		<path class="st0" d="M966.6,885c8.2-0.6,16.3,0.6,24.4,1.6c6.4,0.9,12.8,1.3,19.2-0.2c1.1-0.3,2.2-0.7,3-1.5
			c4.2-3.6,8-7.7,12.4-11c5.2-3.9,6.1-8.9,5.3-14.6c-0.5-3.7-1.2-3.9-4.8-3.6c-0.8,0.1-1.5,0.2-2.3,0.3c-4,0.3-7.9,0-11.6-1.9
			c-4.5-2.3-6.7-8.2-4.8-12.6c5.9,6.1,12.6,10.2,21.5,9.2c0.9-3.5,0.3-6.5-1.6-9.3c-1.5-2-3.2-3.9-4.7-5.9
			c-9.5-13.3-19.8-25.9-32.3-36.7c-10.8-9.3-22.5-17.1-36.6-20.8c-5.3-1.4-9.5-4-13.2-7.8c-3.2-3.3-6.3-6.8-9.7-10
			c-2.3-2.2-5.1-3.9-7.8-5.7c-1.7-1.2-3.4-2.2-5.1-3.3c-1.7-1.1-3.4-2.3-5.1-3.4c0.7,2.6,2,4.5,2.7,6.6c4.6,13.3-4.1,28.7-18,32.2
			c-2.8,0.7-5.5,1.5-8.3,2.3c-3.6,1.2-6.3,3.5-8,6.9s-2,7-1.3,10.7c1.8,9.4,6,17.3,16,20.1c4.1,1.2,8.6,1.3,12.9,1.1
			c9.1-0.5,16.4-4.7,21.8-12c1.8-2.5,2.5-5.3,1.6-8.3c-0.4-1.4-1-3.3-3-2.8c-1.9,0.4-2.6,2.1-2.4,4c0.1,1.1,0.7,2.2,1,3.3
			c-4.2,1.1-8.2,1.2-11.6-2c-4.3-4-4.9-12-1.4-16.7c5.6-7.4,18.8-9.5,26.5-4.2c5.5,3.8,9.5,8.6,12.1,14.7c0.3,0.7,1,1.3,1.6,1.8
			c3.8,3,7.8,5.8,11.3,9.1c2.3,2.1,4,4.9,5.9,7.4c-0.1,0.1-0.3,0.3-0.4,0.4c-5.2-1.5-10.4-3-15.9-4.6c-0.2,11.6-4.6,21.3-11,30.2
			c-6.4,9.1-15.8,14.9-25.7,20.4c8.3,4.6,12.1,11.9,14.7,20c1.6,4.9,3,10,4.5,14.9c1.7,5.7,3.8,11.2,8.3,15.4c1.3,1.2,2.9,2,4.4,3.1
			c0.2-0.2,0.3-0.3,0.5-0.5c-0.5-1.9-1.2-3.8-1.6-5.7c-1.5-8.9-1.5-17.6,3.5-25.6c1.7-2.6,3.7-4.4,7-4.7
			C962.7,885.4,964.6,885.1,966.6,885z"/>
		<path class="st0" d="M577.6,720.5c-7.2-10.9-20.3-18.4-34.6-16.2c-4.1,0.6-8,2.1-12.2,3.3c-2.5-2.4-5.7-3.2-9.3-1.6
			c-3.6,1.6-4.8,4.6-4.8,8.4c0,0.6,0,1.1,0,1.7c0,26.6-0.1,53.2-0.1,79.8c0,5.9,0,11.8,0,17.7c0,3.9,2.5,7,6.1,8
			c5.5,1.4,10.5-2.4,10.6-8.4c0.1-4.6,0-9.1,0-14.2c4.7,3.4,9.5,4.8,14.6,4.6c1.3,0,2.5-0.1,3.7-0.3c10.8-1.3,19-7,25.3-15.7
			c0.3-0.3,0.5-0.7,0.7-1c0.7-1.1,1-2.6,1-3.9c0.1-19.3,0.1-38.6,0.1-57.8c0-0.3,0-0.6-0.1-1C578.5,722.7,578.2,721.4,577.6,720.5z"
			/>
		<path class="st0" d="M937.6,724.3c-50.4-0.3-100.8-0.6-151.2-0.8c-53.4-0.2-106.9-0.2-160.3-0.2c-11.8,0-23.6,0.2-35.4,0.3
			c0.1,0.9,0.2,1.7,0.2,2.7c0,19.3-0.1,38.6-0.1,58c0,3.6-1.2,7.1-3.6,9.8c-1.7,2-3.5,3.9-5.4,5.7c5.1,12.5,10.3,25,15.4,37.4
			c4.2-2.6,8-5.3,12.1-7.5c14.1-7.6,29.6-10.8,45.4-12.5c13.6-1.4,27.3-2.5,41.2-3.8c-1,2.4-2.1,5-3.3,7.8c0.3-0.1,0.5-0.2,0.7-0.3
			c11.2-8.6,23.1-16.2,35.5-23.1c23.8-13.2,48.1-25.1,74.1-33.4c9.5-3,19-5.7,28.9-6.8c2.2-0.2,3.7-1.1,5.4-2.5
			c4.6-3.7,9.2-7.6,14.4-10.5c13.9-7.7,29-9.6,44.7-7.6c10,1.3,19,5.1,25.9,12.6c0.4,0.4,0.9,0.8,1.5,0.8c3,0.4,5.3,2,7.4,4.1
			c4.1,4.1,8.1,8.2,12.3,12.2c4,3.9,8.8,6.6,14.4,7.6c6.5,1.1,12.3,3.8,17.6,7.4c22.1,15,39.8,34.4,55.6,55.6
			c2.9,3.8,3.6,8.4,3.5,13.1c0,1.8,0.1,3.6,0.6,5.4c2.5,9,0.4,16.8-7.1,22.6c-3.9,3-8.4,5.4-11.4,9.6c-0.1,0.2-0.4,0.3-0.6,0.4
			c-4,3.1-8.7,3.5-13.5,3.1c-6.8-0.6-13.6-1.5-20.4-2c-5.2-0.3-10.4-0.5-15.5-0.3c-4.1,0.2-7.6,2.9-8.9,6.8c-2,5.9-2.5,12-1.6,18
			c0.6,4.2,2.4,8.2,3.3,12.3c2.7,11.8,2.1,23.7,1.2,35.7c-0.6,8-2,15.9-2.5,24c-0.9,15.4-3.1,30.3-8,45.1
			c-11,33.6-29.3,62.5-54.9,87.2c-0.4,0.4-0.8,0.8-1.3,1.5c0.9,0.1,1.5,0.1,2.1,0.2c44.2,0.1,88.4,0.2,132.5,0.2
			c1,0,2.3-0.5,3.1-1.2c10.7-10.1,21.4-20.2,32-30.4c0.7-0.7,1.3-2,1.3-3c0.1-61.9,0.1-123.8,0.2-185.8c0.1-57.3,0.2-114.7,0.3-172
			c0-0.9,0-1.8,0-2.8c-1.2,0-2,0-2.8,0C1021.1,724.9,979.3,724.6,937.6,724.3z"/>
		<path class="st0" d="M951.1,814.9c-0.2-10.5-5.4-18.7-15.2-23.6c-6.4-3.2-14.8-0.8-18.2,5.1c-2.3,4,0.1,10.4,4.5,11.6
			c-0.8-2.4-0.3-4.6,1.4-6.4c3.9-4,10-2.9,12.5,2.4c2.9,6.2,1.1,11.8-3,16.8c-1.3,1.6-2.4,2.9-1.2,5c0.2,0.3-0.1,0.8-0.2,1.5
			c-1.1-0.6-1.9-1.1-2.8-1.5c-2.3,1.5-4.9,2.8-3,6.3c0.2,0.3,0,0.8-0.1,1.3c-0.2,0.1-0.4,0.3-0.6,0.4c-0.8-1.2-1.6-2.3-2.4-3.5
			c-1.5,0.7-2.4,1.3-3.4,1.5c-1.8,0.4-2.4,1.3-2.3,3.1c0,1.1-0.3,2.2-0.5,3.3c-0.3,0-0.5,0-0.8,0c-0.8-1.5-1.5-3.1-2.3-4.6
			c-1.9,0.3-3.6,0.5-4.9,0.8c-1.2,2.4-2.3,4.6-3.3,6.7c-0.3-0.1-0.6-0.2-0.9-0.3c0-2.1,0-4.3,0-6.3c-2.3-0.4-4.2-0.7-5.7-1
			c-1.8,2.1-3.4,4-5,5.9c-0.2-0.1-0.5-0.3-0.7-0.4c0.2-1.1,0.4-2.1,0.7-3.2c0.3-1.1,0.7-2.1,1.1-3.3c-1.7-0.7-3.3-1.4-4.9-2.1
			c-1.1,2.4-5.5,5-8.8,4.9c1.9-2.6,3.6-5,5.4-7.5c-1-0.8-2.1-1.8-3.2-2.7c-2.6,2.9-6,3.4-9.4,3.8c-0.2-0.2-0.3-0.5-0.5-0.7
			c2.5-1.9,4.9-3.8,7.5-5.8c-0.5-0.6-1-1.3-1.5-2c0,0.2,0,0.5,0,0.7c-3.2,0.5-6.4,0.9-9.5,1.4c-0.1-0.4-0.2-0.7-0.3-1.1
			c2.7-1.2,5.3-2.4,8.2-3.6c-0.7-1-1.5-2-2-2.7c-3.5,0.3-6.6,0.6-9.7,0.8c-0.1-0.3-0.1-0.6-0.2-1c2.8-1.1,5.7-2.3,8.6-3.4
			c-0.2-0.9-0.5-1.9-0.6-2.3c-3.4-0.6-6.3-1.1-9.2-1.6c0-0.3,0-0.7,0.1-1c2.8-0.4,5.6-0.7,8.5-1.1c0-0.9,0-2,0-2.7
			c-3.9-0.3-6.9-1.9-9.8-3.8c0.1-0.3,0.1-0.6,0.2-0.9c3.4,0.4,6.7,0.8,10.3,1.2c0.1-0.6,0.3-1.4,0.5-1.9c-3.2-1.9-6.1-3.6-9.1-5.4
			c0.1-0.3,0.3-0.6,0.4-0.9c3.2,0.9,6.5,1.7,9.7,2.6c0.5-0.7,1-1.5,1.4-2.2c-2.4-0.5-5.5-3.5-6.5-6.9c2.7,1.5,5.4,2.9,8.2,4.4
			c0.7-0.7,1.4-1.5,2-2.3c-2.8-2.1-4.6-4.7-5.9-8.4c3.8,1.6,6,4,7.7,7c1.3-0.6,2.4-1.2,3.7-1.8c-2.7-1.7-2.7-4.3-3.2-6.7
			c0.3-0.2,0.5-0.3,0.8-0.5c1.5,2.1,3,4.2,4.7,6.5c1.8-0.4,4-1,6.3-1.4c11.6-2,18.9-12.6,16.2-24c-1.9-8.2-7.8-12.7-15.6-14.7
			c-6.8-1.8-13.8-1.4-20.6-0.4c-22.7,3.1-39,14.9-48.4,35.6c-5.2,11.5-8,23.5-5.7,36.2c3.8,20.7,15.8,35.8,33.5,46.9
			c0.7,0.4,2.1,0.4,2.8,0c5.3-2.7,11.1-0.3,12.4,5.4c0.3,1.3,0.8,1.9,2.2,2.2c8,2.1,16,3.1,24.2,2.3c3.2-0.3,3.2-0.2,3.4-3.3
			c0.3-3.7,2.7-6.6,6.5-7.5c3.4-0.8,7.1,0.9,8.9,4.1c0.3,0.5,0.5,1.1,0.9,1.8c2.6-1.3,5.2-2.5,7.7-3.9
			C941.7,851.8,951.5,836.1,951.1,814.9z"/>
		<path class="st0" d="M867,903.9c-0.1-0.6-0.9-1.2-1.4-1.7c-0.6,0.6-1.6,1.1-1.7,1.7c-0.2,2.7-0.2,5.5,0,8.2c0,0.7,1,1.2,1.5,1.9
			c0.5-0.6,1.4-1.2,1.5-1.9c0.2-1.3,0.1-2.7,0.1-4.1C867,906.7,867.2,905.3,867,903.9z"/>
		<path class="st0" d="M870,874.9c0,0.2,0,0.4,0,0.6c-0.1,0-0.1,0-0.2,0c0,12.7,0,25.1,0,37.6c9.8,0,19.3,0,29.3,0.1
			c0-0.2,0-0.2,0-0.2s0,0,0.1,0c0-13,0.1-25.2,0.1-38C889.4,877,879.7,876.7,870,874.9z"/>
		<path class="st0" d="M866.8,962c-0.1-0.6-1-1.5-1.3-1.4c-0.6,0.1-1.6,0.8-1.7,1.3c-0.3,1.2,0.1,2.6-0.2,3.9
			c-0.4,1.6-1.2,3.1-1.8,4.7c-0.3,0.8-0.4,1.7-0.6,2.6c0.8,0,2,0.3,2.5-0.1c1.1-0.9,2.1-2,2.6-3.3c0.6-1.4,0.5-3,0.7-4.5
			c-0.1,0-0.1,0-0.2,0C866.9,964.1,867.1,963,866.8,962z"/>
		<path class="st0" d="M863.8,956.1c0,0.7,0.9,1.9,1.5,2.1c1.5,0.3,1.6-0.9,1.6-2.1c0-3.7,0-7.3,0-11s0-7.5,0-11.2
			c0-1.2-0.2-2.4-1.6-2.2c-0.6,0.1-1.5,1.3-1.5,2C863.7,941.1,863.7,948.6,863.8,956.1z"/>
		<path class="st0" d="M865.4,895.3c-1.7-0.2-1.5,1.3-1.5,2.4c0,1.2,0.1,2.6,1.7,2.3c0.8-0.1,1.3-1.4,2.4-2.6
			C866.8,896.5,866.2,895.4,865.4,895.3z"/>
		<path d="M555,697.6c-2.1-0.2-4.3-0.2-6.4,0c-2.6,0.2-5.2,0.6-7.8,1.3c-0.6,0.1-1.2,0.3-2.1,0.4c-0.1-0.2-0.3-0.8-0.7-1.7
			c-6.7-16.9-60-150.4-61.2-153.6l-114.1-0.6c0.7,5.4,1.5,9.7,2.3,14.4c0.7,4.2,1.1,5.9,2.2,10.2c0.6,2.1,1.2,2.8,3.5,2.8
			c15.5-0.1,27.4,0,42.8,0c0.8,0,1.6,0,3,0c-16,7.1-31.4,13.9-47.1,20.9c-1.2-2.6-2.6-5.3-3.5-8.1c-1.4-4.4-2.9-8.7-3.8-13.2
			c-2.2-10.9-3-15-4.4-23.1c-1-6.2-1.8-12.8-2.4-19c-1-0.7-1-0.9-2-1.6c-4.7,1-9.4,1.8-14,2.9c-8.2,2.1-15.8,5.5-22.9,10.1
			c-5.1,3.2-8.9,7.5-11,13c-2.4,6-4.8,12.1-6.4,18.4c-1.3,5.1-1.5,10.6-1.7,15.9c-0.7,16.7-1,33.5-1.7,50.2c0,1-0.8,2.3-1.7,3
			c-11.1,9.7-21.5,20.2-31.2,31.2c-19.5,22.1-36.2,46.2-51,71.6c-22,37.6-37.2,77.7-47.3,119.8c-2.8,11.7-4.5,23.7-6.7,35.5
			c-0.4,2.1,0.4,2.9,2.7,2.8c6.6-0.3,13.2-0.7,19.8-1.1c12.4-0.7,24.8-1.3,37.5-1.5c-0.6,0.3-1.2,0.6-1.8,1
			c-7.3,4.1-14.8,7.7-21.7,12.3c-7.7,5.1-14.9,10.9-22.4,16.5c-0.6,0.4-1.2,0.9-1.5,1.4c-0.6,1.2-0.7,2.4,1.2,2.7
			c7.4,1.1,14.9,2.3,22.3,3.2c17.9,2.2,35.9,3.1,54,2.4c12.2-0.5,24.5-1.5,36.7-2.9c25.8-3,50.6-9.7,74.9-18.5
			c20.2-7.4,39.3-16.9,58-27.4c4.4-2.5,8.9-4.9,13.4-7.5c1.3-0.7,2.1-0.5,3.3,0.4c12.1,10,25.6,17.4,41.4,20
			c11.2,1.8,22.3,1.3,33.3-0.9c9-1.8,17.7-4.7,25.7-9c1.7-0.9,3.2-2,5-3.2c-5.4-9.3-12.2-17.3-19.5-24.8s-15-14.6-22.6-22
			c4.5-2.8,9.1-5.6,13.6-8.5c2.3-1.4,4.5-2.9,6.9-4.2c0.7-0.4,1.8-0.5,2.4-0.2c11.1,5.9,24.8-2,24.6-14.6c0-0.6,0.1-1.2,0.1-1.9
			c2.6,0.1,5.1,0.1,7.5,0.4c0.6,0.1,1.3,1.1,1.6,1.9c7.2,17.8,14.3,35.6,21.4,53.4c3.3,8.2,6.5,16.3,9.8,24.5
			c9.5,23.3,19,46.7,28.5,70c0.3,0.8,0.6,1.7,1,2.6c-163.5-0.3-326.7-0.6-490.1-1c0-1,0-1.8,0-2.6c0.2-120.3,0.5-240.6,0.8-360.9
			c0-1.2,0.5-2.8,1.4-3.6c9.2-8.9,18.5-17.7,27.8-26.4c0.8-0.7,2.2-1,3.3-1c45.2,0,87.7,0.1,132.9,0.2c3.6,0,3.6,0,4.4-3.5
			c2-8.2,5-16.1,10.3-22.8c0.1-0.2,0.2-0.4,0.3-0.8c-1,0-1.8,0-2.6,0c-53.7-0.1-104.9-0.2-158.6-0.4c-2,0-3.3,0.6-4.7,1.9
			C126.8,558,113.2,571,99.6,584c-0.6,0.5-1.2,1-1.7,1.5c-0.3,136.2-0.6,272.5-0.8,408.7c177.1,0.3,354.3,0.7,531.4,1
			c3.7,9.1,7.3,18.2,11,27.4c3.3,8.2,6.5,16.3,9.8,24.5c9.5,23.3,19,46.7,28.5,70c0.2,0.5,5.4,14.3,8.9,23.6c2,5.2,6.9,8.6,12.4,8.6
			c6.7,0,15.6,0,21.3,0c-4-10.2-8-20.5-12.1-30.7c-19-47.8-38-95.7-57.1-143.5c-2.3-5.8-4.8-11.5-7.3-17.2
			c-0.5-1.2-44.2-111.2-45.4-114.6c-0.1-0.4,0.5-1.3,1.1-1.7c5.7-4.6,12.2-7.8,19-10.4c12.9-5,26.5-7.7,40.2-9.4
			c8.3-1,16.7-1.8,25-2.7c1.9-0.2,3.8-0.8,5.7-1.3c-1.4,3.2-9.9,10.7-18.9,15.9c-7.2,4.1-14.7,7.5-21.1,10.8
			c6.3-0.7,13.3-3.1,20.2-5.9c16.1-6.6,30.9-15.3,44.7-25.7c7.4-5.6,15.6-10,23.6-14.6c19.2-11,38.9-21.2,60.1-27.8
			c10.6-3.3,21.5-5.8,32.3-8.7c0.7-0.2,1.3-0.2,2.4-0.3c-0.5,0.6-0.8,1-1.1,1.3c-22.5,19.3-25.9,51.7-11.1,77.3
			c7.2,12.5,17.3,22.1,30.2,28.8c1.6,0.8,2.2,1.7,2.2,3.5c-0.1,31.6-0.2,63.2-0.2,94.8c0,4.6,2.3,8,6.2,8.9
			c5.5,1.3,10.3-2.5,10.3-8.4c0.1-8.8,0.1-17.6,0.1-26.4c0-3.7,0-7.5,0-11.4c9.8,0,19.5,0,29.5,0.1c0,0.9,0,1.8,0,2.7
			c0,11.8-0.1,23.6-0.1,35.4c0,5.8,4.5,9.4,9.9,8.3c3.5-0.7,6.1-3.8,6.4-7.5c0.1-0.8,0-1.5,0-2.3c0.1-30.9,0.1-61.8,0.2-92.8
			c0-0.9,0-1.8,0-3.5c2.1,1.4,3.9,2.4,5.4,3.7c3.9,3.5,5.9,8.2,7.3,13.1c2.2,7.4,4.3,14.8,6.5,22.2c1.8,5.9,5.1,10.8,10.1,14.5
			c2.5,1.8,4.9,3.7,7.3,5.7c2.3,1.9,3.5,4.6,3.5,7.5c0.2,8.8,0.7,17.6,0.1,26.3c-0.9,13.8-2.1,27.6-4.1,41.3
			c-4,26.8-12.9,52-29.5,74c-8.6,11.3-17.6,22.4-26.8,33.2c-5.4,6.3-12.6,10.6-19.8,14.7c-4.4,2.5-8.5,5.5-13.1,7.5
			c-7.6,3.2-15.4,6.1-23.3,8.5c-10.5,3.3-21.3,5.4-32.3,6.5c-0.2,0-0.4,0.1-0.6,0.6c1,0,2,0,3,0c11,0,21.9,0.1,32.9,0.1
			c1,0,2,0.2,3,0.2c67.8,0.1,135.6,0.3,203.5,0.4c5.6-5.6,11.1-11.3,16.7-16.9c9-8.9,17.9-17.9,26.9-26.7c1.1-1.1,1.6-2.2,1.6-3.8
			c0.1-84.3,0.2-168.5,0.4-252.8c0.1-49.2,0.1-98.4,0.2-147.6c0-1.1,0-2.1,0-3.5C911.7,698.3,736.7,698,555,697.6z M173.3,876.8
			c-1.2,1.3-2.7,2.2-4.1,3.3c-1.3,1-2.6,2.1-3.9,3.3c-2.7-4.2,1.5-10.1,5.8-10.6c1-0.1,2.5,0.4,2.9,1.1
			C174.4,874.5,174,876.1,173.3,876.8z M479.9,630.7c0.5,1.3,1,2.5,1.6,4c-3.6,1.5-7.2,2.9-10.7,4.5c-11,5-21.9,10.1-32.8,15.2
			c-25.6,12.2-49.6,26.8-72.6,43.3c-0.8,0.6-1.9,0.8-2.9,1C376.4,682.7,456.9,636.2,479.9,630.7z M264.8,685.3
			c6.3-7.2,12.5-14.4,19.1-21.3c6.2-6.4,12.8-12.5,19.2-18.6c1.3-1.2,1.9-2.3,1.9-4.1c0-13.5-0.2-26.9,0.2-40.4
			c0.3-11.4,1.1-22.8,3.7-33.9c0.6-2.4,1.7-4.8,2.6-7.1c0.3-0.7,0.9-1.3,1.3-1.9c0.9,11.9,1.5,23.6,2.8,35.2
			c1.3,11.7,3.1,23.3,7.1,34.8c2.9-2.3,5.6-4.3,8.2-6.4c0.4-0.3,0.4-1.2,0.3-1.8c-1.3-9.1-3.1-18.3-3.9-27.4
			c-1.3-13.9-0.6-27.8,3.8-41.3c0.2-0.7,0.6-1.5,1.1-2.1c-0.9,22.1,2.6,43.3,12.2,63.5c0.6-0.3,1-0.4,1.3-0.6
			c2.4-1.5,4.9-2.9,7.5-4.5c-6.3-18.7-7-37.7-3.2-56.9c0.1-0.7,0.4-1.3,1-1.9c1.1,9.1,1.9,18.3,3.5,27.3c1.6,9.1,4.7,17.8,10.1,25.7
			c0.8-0.4,1.6-0.7,2.3-1c21.9-9.7,43.8-19.5,65.9-28.9c3.4-1.4,7.6-0.8,11.5-1.2c0.1,0.3,0.1,0.6,0.2,0.9c-2,0.7-4,1.4-5.9,2.2
			c-10.1,4.4-20.5,8.5-30.3,13.5c-15.4,7.8-30.7,16-45.7,24.6c-27.6,15.8-52.6,35-75.2,57.2c-9,8.8-17.3,18.1-25.9,27.2
			c-1.6,1.7-3.7,2.6-7.6,2.8C257.5,694.2,261,689.6,264.8,685.3z M220.3,813c10.2,0,18.4,8,18.4,18c-0.6,2.5-8.6,13.3-18.3,17.9
			c-10.5,0-18.7-7.9-18.7-18C201.6,820.9,209.8,813,220.3,813z M239.4,899.2c-4.5,2.9-9.4,3-14.6,2c1.6-0.1,3.2-0.2,4.8-0.4
			c0.7-0.1,1.4-0.2,2.1-0.3c5.1-1.1,8.3-4,8.9-8.2c0.7-4.2-1.8-8.3-6.7-10.8c-5.7-3-11.9-4-18.2-4.4c-5.4-0.4-10.9-0.3-16.3-0.4
			c-0.4,0-0.8-0.1-1.3-0.1c11.2-2,22.4-2.8,33.2,1c3.4,1.2,6.8,3.1,9.6,5.4C246.7,887.9,245.8,895.1,239.4,899.2z M261.6,822.8
			c-12.6-0.4-22-6.8-28.8-16.9c-2.4-3.5-0.9-8.7,2.6-11c3.6-2.4,8.5-1.5,11.3,1.8c1.8,2.1,3.6,4.3,5.7,6c7.1,5.5,16.2,4.7,22.8-1.7
			c-7.5-12.9-15-25.8-22.5-38.6c-6.5-11.1-12.9-22.1-19.4-33.2c-2.2-3.7-2-7.2,0.7-10.6c8.2-10.4,18.7-16.3,32.8-14.9
			c1.8,0.2,3.6,0.6,5.4,1.1c8.6,2.6,15.6,7.4,20.6,14.6c2.8,4.1,2.2,8.8-1.6,11.6c-3.6,2.7-8.9,2.1-12-1.4c-1.7-1.9-3.4-4.1-5.4-5.7
			c-7.2-5.8-16.9-5.2-23.2,1.4c0.5,0.9,1,1.8,1.5,2.7c11.4,19.5,22.8,39.1,34.3,58.6c2,3.4,4.2,6.6,6.3,10c2.5,3.9,2.3,7.7-0.7,11.3
			C284.2,817.4,274.4,823.3,261.6,822.8z M314.5,879.4c-6.2,5-13.2,8.3-20.7,10.6c-1.6,0.5-3.3,0.9-5,1.4c-0.1-0.2-0.2-0.4-0.2-0.6
			c0.9-0.4,1.9-0.9,2.8-1.3c7.7-3.5,14.8-7.7,20.9-13.5c12.1-11.6,14.4-25,6.7-39.9c-0.9-1.7-1.8-3.3-2.7-4.9
			c0.2-0.2,0.2-0.2,0.3-0.2c5-0.9,5.1-1,7.1,3.6C330.7,849.8,329.3,867.5,314.5,879.4z M349.3,818c-1-1.7-1.5-3.9-1.5-5.8
			c-0.1-11.4,0-22.8,0-34.2c0-0.9,0-1.8,0-3c-9.5,0-18.8,0-28.6-0.1c0,0.8,0,1.7,0,2.5c0,11.8,0,23.6-0.1,35.4
			c0,3.5-1.6,6.2-4.8,7.8c-3,1.5-5.9,1.2-8.6-0.7c-2.5-1.8-3.5-4.3-3.5-7.4c0.1-24.7,0.1-49.4,0.2-74.1c0-8.3,0-16.7,0.1-25
			c0-5,3.5-8.5,8.3-8.5s8.5,3.6,8.5,8.5c0,13.9,0,27.9-0.1,41.8c0,0.9,0,1.8,0,2.9c9.7,0,19,0,28.6,0.1c0-1,0-1.9,0-2.8
			c0-13.7,0-27.4,0.1-41.1c0-7.6,5.7-11.2,12.8-8.2c2.9,1.3,4.3,3.7,4.4,6.7c0.1,1.9,0,3.8,0,5.7c-0.1,31.5-0.1,63.1-0.2,94.6
			c0,4.1-2.1,6.8-6.2,8.1C355.1,822.3,351.1,821.2,349.3,818z M350.6,882.7c0.6-0.6,1.2-1.3,1.8-1.9c9.1-9.2,16.2-19.5,18.6-32.3
			c1.1-5.6,1.4-11.3,0.3-16.9c-0.4-2.5-0.3-4.4,2-5.9c0.4-0.3,0.6-0.9,1-1.5C382.6,842,369.5,874.5,350.6,882.7z M394.8,745.3
			c0,1,0.6,2.2,1.3,3c3.8,3.9,8.5,6.1,14.1,6c2.3-0.1,4.7-0.1,7,0c4.8,0.2,8.3,3.8,8.2,8.5c-0.1,4.6-3.7,8-8.4,8c-2.4,0-4.8,0-7.2,0
			c-5.7,0-10.3,2.4-14.2,6.4c-0.5,0.5-0.8,1.5-0.8,2.2c-0.1,6.1-0.1,12.2,0,18.4c0,0.9,0.6,2.1,1.2,2.8c7.6,8,18.8,7.9,26.5-0.2
			c0.8-0.9,1.7-1.8,2.4-2.8c3.1-4.4,8.6-4.7,12.6-2.1c3.9,2.6,4.6,8.2,1.3,12.2c-10.9,13.3-26.3,19.7-43.1,12.6
			c-6.8-2.8-12.1-7.5-16.1-13.5c-1-1.5-1.5-3.6-1.6-5.4c-0.1-8.3,0-16.7-0.1-25c0-2.7,0.6-5,2.4-7c2-2.3,4.1-4.6,6.2-6.9
			c-2.2-2.5-4.6-4.9-6.6-7.6c-1-1.4-1.7-3.3-1.8-5c-0.2-8.4-0.1-16.8,0-25.3c0-1.6,0.7-3.5,1.6-4.9c13.1-19.4,38.5-21.6,55-4.9
			c1.4,1.4,2.9,2.8,4.1,4.3c3.1,4,2.6,9.3-1.1,12.1c-3.8,2.9-9.6,2-12.6-1.9c-3.3-4.3-7.2-7.6-12.7-8.8c-5.7-1.2-13.7,1.7-17.1,6.3
			c-0.4,0.6-0.5,1.4-0.5,2.1C394.7,734.5,394.7,739.9,394.8,745.3z M525.9,887.5c-22,12.8-56.2,12.1-83.7-11.4c1.7-1,3.3-2,5-2.8
			c0.4-0.2,1.3,0.2,1.7,0.6c9.9,9.8,21.9,15.6,35.8,17.5c8,1.1,16,0.9,23.9-0.5C514.4,890,520.2,888.7,525.9,887.5z M518.5,878.6
			c-14,7.8-38.2,7.6-59.2-12c2.3-2.6,2.6-2.6,5.2-0.4c12.2,10.8,26.8,14.7,42.8,13.7C510.9,879.8,514.4,879.1,518.5,878.6z
			 M509.1,868.9c-6.7,3.9-27.8-4-34.2-12.6c1-0.8,2-1.5,3.2-2.5C486.5,862.6,496.3,868.5,509.1,868.9z M464.3,745.8
			c0,0.8,0.3,1.6,0.9,2.2c3.7,3.9,8.2,6.3,13.8,6.4c2.5,0,5,0,7.5,0c5,0.1,8.5,3.7,8.4,8.5c-0.1,4.7-3.7,8-8.6,8c-2.1,0-4.2,0-6.3,0
			c-5.7-0.1-10.5,2-14.4,5.9c-0.7,0.7-1.3,2.2-1.3,3.2c-0.1,5.9-0.1,11.8,0,17.7c0,1,0.6,2.3,1.2,3c7.6,8.1,19,7.9,26.6-0.3
			c0.9-1,1.7-2.1,2.6-3.2c2.9-3.5,7.8-4.3,11.5-1.8c3.6,2.4,4.8,7.8,2.2,11.4c-13.8,19.7-38.8,21.9-55,5.5c-1.1-1.1-2-2.3-3-3.5
			c-2.7-3.1-3.6-6.7-2.8-11.3c1.1-6.2,1.2-12.5,0-18.7c-0.7-4.1,0.1-7.1,2.5-9.8c1.9-2.2,3.9-4.3,5.9-6.5c-2.2-2.4-4.6-4.8-6.6-7.5
			c-1.1-1.5-1.8-3.5-1.9-5.2c-0.2-8.3-0.1-16.7,0-25c0-1.7,0.7-3.7,1.7-5.1c14.7-21.4,44.2-21.3,59,0c2.7,3.9,1.9,9.1-1.8,11.7
			c-3.7,2.7-9,1.9-11.8-1.9c-3.3-4.4-7.2-7.9-12.8-8.9c-6.9-1.3-12.4,1.5-17.1,6.3c-0.4,0.4-0.5,1.3-0.6,1.9
			C464.3,734.6,464.2,740.2,464.3,745.8z M578.6,782.7c0,1.3-0.3,2.9-1,3.9c-0.2,0.4-0.5,0.7-0.7,1c-6.3,8.7-14.6,14.4-25.3,15.7
			c-1.2,0.1-2.4,0.2-3.7,0.3c-5.2,0.1-10-1.2-14.6-4.6c0,5.1,0,9.6,0,14.2c-0.1,6-5,9.8-10.6,8.4c-3.6-0.9-6.1-4.1-6.1-8
			c0-5.9,0-11.8,0-17.7c0.1-26.6,0.1-53.2,0.1-79.8c0-0.6,0-1.1,0-1.7c0-3.8,1.3-6.8,4.8-8.4c3.6-1.6,6.8-0.8,9.3,1.6
			c4.2-1.2,8.1-2.7,12.2-3.3c14.4-2.2,27.4,5.3,34.6,16.2c0.6,0.9,1,2.2,1.1,3.4c0,0.3,0.1,0.6,0.1,1
			C578.8,744.1,578.7,763.4,578.6,782.7z M866.4,969.6c-0.5,1.2-1.6,2.4-2.6,3.3c-0.5,0.4-1.6,0.1-2.5,0.1c0.2-0.9,0.3-1.7,0.6-2.6
			c0.6-1.6,1.4-3.1,1.8-4.7c0.3-1.2-0.1-2.6,0.2-3.9c0.1-0.6,1-1.2,1.7-1.3c0.4-0.1,1.2,0.9,1.3,1.4c0.2,1,0.1,2.1,0.1,3.2
			c0.1,0,0.1,0,0.2,0C866.9,966.7,866.9,968.3,866.4,969.6z M866.9,912.2c-0.1,0.7-1,1.2-1.5,1.9c-0.5-0.6-1.5-1.2-1.5-1.9
			c-0.2-2.7-0.2-5.5,0-8.2c0-0.6,1.1-1.1,1.7-1.7c0.5,0.6,1.3,1.1,1.4,1.7c0.2,1.3,0.1,2.7,0.1,4.1
			C867,909.4,867.2,910.8,866.9,912.2z M863.8,933.6c0-0.7,0.9-1.9,1.5-2c1.4-0.2,1.6,1,1.6,2.2c0,3.7,0,7.5,0,11.2s0,7.3,0,11
			c0,1.2-0.2,2.4-1.6,2.1c-0.6-0.1-1.5-1.3-1.5-2.1C863.7,948.6,863.7,941.1,863.8,933.6z M865.5,900.1c-1.6,0.3-1.7-1.1-1.7-2.3
			c0-1.1-0.1-2.6,1.5-2.4c0.8,0.1,1.4,1.2,2.5,2.2C866.9,898.7,866.3,899.9,865.5,900.1z M899.1,913c-0.1,0-0.1,0-0.2,0
			c0,0,0,0.2,0,0.4c-9.9,0-19.5-0.1-29.2-0.1c0-12.5,0.1-25,0.1-37.7c0.1,0,0.1,0,0.2,0c0-0.2,0-0.4,0-0.6
			c9.7,1.7,19.4,2.1,29.2,0.1C899.2,887.8,899.1,900,899.1,913z M912.5,969.6c-0.7,1.4-2.1,2.6-3.4,3.7c-0.3,0.2-1.5-0.1-1.7-0.5
			c-0.3-0.5-0.2-1.8,0.1-2c2.5-1.6,2.2-4.1,2.4-6.5c0.1-1.4-1-3.8,1.6-3.7c2.5,0,1.3,2.4,1.6,3.8c0,0.2,0,0.5,0,0.7
			c0.1,0,0.1,0,0.2,0C913,966.7,913.2,968.3,912.5,969.6z M911.5,958.1c-2.6,0-1.6-2.2-1.6-3.6c0-1.3-0.9-3.5,1.6-3.5
			c2.4,0,1.2,2.3,2.2,3.9C912.9,956,912.2,958.1,911.5,958.1z M915.4,866.2c-0.4-0.8-0.6-1.3-0.9-1.8c-1.8-3.2-5.5-4.9-8.9-4.1
			c-3.7,0.9-6.2,3.7-6.5,7.5c-0.2,3.1-0.2,3-3.4,3.3c-8.2,0.8-16.3-0.2-24.2-2.3c-1.3-0.3-1.9-0.9-2.2-2.2
			c-1.3-5.7-7.1-8.1-12.4-5.4c-0.8,0.4-2.2,0.4-2.8,0c-17.7-11.1-29.7-26.3-33.5-46.9c-2.3-12.6,0.4-24.7,5.7-36.2
			c9.4-20.7,25.6-32.5,48.4-35.6c6.9-0.9,13.9-1.4,20.6,0.4c7.8,2.1,13.7,6.5,15.6,14.7c2.6,11.3-4.7,22-16.2,24
			c-2.3,0.4-4.5,1-6.3,1.4c-1.7-2.3-3.2-4.4-4.7-6.5c-0.3,0.2-0.5,0.3-0.8,0.5c0.5,2.4,0.5,5,3.2,6.7c-1.2,0.6-2.4,1.2-3.7,1.8
			c-1.7-2.9-3.9-5.3-7.7-7c1.3,3.7,3.1,6.3,5.9,8.4c-0.7,0.8-1.4,1.6-2,2.3c-2.8-1.5-5.5-2.9-8.2-4.4c1,3.4,4.1,6.3,6.5,6.9
			c-0.5,0.8-1,1.5-1.4,2.2c-3.2-0.9-6.5-1.7-9.7-2.6c-0.1,0.3-0.3,0.6-0.4,0.9c3,1.7,5.9,3.5,9.1,5.4c-0.1,0.5-0.3,1.4-0.5,1.9
			c-3.6-0.4-7-0.8-10.3-1.2c-0.1,0.3-0.1,0.6-0.2,0.9c2.9,2,5.9,3.6,9.8,3.8c0,0.7,0,1.8,0,2.7c-2.9,0.4-5.7,0.8-8.5,1.1
			c0,0.3,0,0.7-0.1,1c2.9,0.5,5.8,1,9.2,1.6c0.1,0.3,0.3,1.3,0.6,2.3c-3,1.2-5.8,2.3-8.6,3.4c0.1,0.3,0.1,0.6,0.2,1
			c3.1-0.3,6.2-0.5,9.7-0.8c0.5,0.7,1.3,1.7,2,2.7c-2.9,1.3-5.5,2.5-8.2,3.6c0.1,0.4,0.2,0.7,0.3,1.1c3.2-0.5,6.4-0.9,9.5-1.4
			c0-0.2,0-0.5,0-0.7c0.5,0.7,1.1,1.4,1.5,2c-2.6,2-5.1,3.9-7.5,5.8c0.2,0.2,0.3,0.5,0.5,0.7c3.4-0.5,6.8-0.9,9.4-3.8
			c1.1,0.9,2.2,1.9,3.2,2.7c-1.8,2.5-3.5,4.8-5.4,7.5c3.3,0.1,7.7-2.6,8.8-4.9c1.6,0.7,3.2,1.4,4.9,2.1c-0.4,1.1-0.8,2.2-1.1,3.3
			s-0.5,2.1-0.7,3.2c0.2,0.1,0.5,0.3,0.7,0.4c1.6-1.9,3.2-3.8,5-5.9c1.5,0.3,3.4,0.6,5.7,1c0,2,0,4.2,0,6.3c0.3,0.1,0.6,0.2,0.9,0.3
			c1.1-2.2,2.1-4.3,3.3-6.7c1.3-0.2,3.1-0.5,4.9-0.8c0.8,1.6,1.5,3.1,2.3,4.6c0.3,0,0.5,0,0.8,0c0.2-1.1,0.5-2.2,0.5-3.3
			c-0.1-1.7,0.5-2.7,2.3-3.1c1-0.2,2-0.8,3.4-1.5c0.8,1.1,1.6,2.3,2.4,3.5c0.2-0.1,0.4-0.3,0.6-0.4c0-0.4,0.2-0.9,0.1-1.3
			c-1.8-3.5,0.7-4.8,3-6.3c0.8,0.5,1.7,0.9,2.8,1.5c0.1-0.7,0.4-1.2,0.2-1.5c-1.2-2.1,0-3.4,1.2-5c4.1-5,5.9-10.6,3-16.8
			c-2.4-5.3-8.6-6.3-12.5-2.4c-1.8,1.8-2.2,3.9-1.4,6.4c-4.3-1.1-6.7-7.6-4.5-11.6c3.4-5.9,11.8-8.3,18.2-5.1
			c9.8,4.9,14.9,13.1,15.2,23.6c0.4,21.2-9.4,36.9-28,47.3C920.6,863.6,918,864.8,915.4,866.2z M953.8,890.2
			c-5,8.1-5.1,16.7-3.5,25.6c0.3,1.9,1,3.8,1.6,5.7c-0.2,0.2-0.3,0.3-0.5,0.5c-1.5-1-3.1-1.9-4.4-3.1c-4.5-4.2-6.5-9.7-8.3-15.4
			c-1.5-5-2.8-10-4.5-14.9c-2.7-8.1-6.4-15.4-14.7-20c9.9-5.5,19.2-11.4,25.7-20.4c6.3-8.9,10.8-18.7,11-30.2
			c5.5,1.6,10.7,3.1,15.9,4.6c0.1-0.1,0.3-0.3,0.4-0.4c-2-2.5-3.6-5.3-5.9-7.4c-3.6-3.3-7.6-6-11.3-9.1c-0.6-0.5-1.3-1.1-1.6-1.8
			c-2.5-6.1-6.6-10.9-12.1-14.7c-7.7-5.3-21-3.2-26.5,4.2c-3.5,4.7-2.9,12.7,1.4,16.7c3.4,3.2,7.4,3,11.6,2c-0.4-1.2-0.9-2.2-1-3.3
			c-0.2-1.8,0.5-3.5,2.4-4c2-0.5,2.6,1.3,3,2.8c0.9,3,0.1,5.8-1.6,8.3c-5.3,7.3-12.6,11.5-21.8,12c-4.3,0.2-8.8,0-12.9-1.1
			c-10-2.9-14.1-10.7-16-20.1c-0.7-3.7-0.4-7.3,1.3-10.7c1.6-3.4,4.3-5.8,8-6.9c2.7-0.9,5.5-1.7,8.3-2.3c13.9-3.4,22.6-18.8,18-32.2
			c-0.7-2.1-2-4.1-2.7-6.6c1.7,1.1,3.4,2.3,5.1,3.4c1.7,1.1,3.5,2.1,5.1,3.3c2.6,1.9,5.4,3.6,7.8,5.7c3.4,3.1,6.4,6.7,9.7,10
			c3.7,3.7,7.9,6.4,13.2,7.8c14,3.7,25.8,11.5,36.6,20.8c12.5,10.8,22.8,23.3,32.3,36.7c1.5,2,3.2,3.9,4.7,5.9
			c2,2.8,2.6,5.8,1.6,9.3c-9,1-15.7-3.1-21.5-9.2c-1.9,4.4,0.3,10.3,4.8,12.6c3.6,1.9,7.6,2.2,11.6,1.9c0.8-0.1,1.5-0.2,2.3-0.3
			c3.7-0.4,4.3-0.1,4.8,3.6c0.8,5.7-0.1,10.7-5.3,14.6c-4.4,3.3-8.2,7.4-12.4,11c-0.8,0.7-2,1.2-3,1.5c-6.4,1.6-12.8,1.1-19.2,0.2
			c-8.1-1.1-16.2-2.3-24.4-1.6c-1.9,0.2-3.9,0.4-5.8,0.5C957.5,885.8,955.5,887.6,953.8,890.2z M1065.7,728.1
			c-0.1,57.3-0.2,114.7-0.3,172c-0.1,61.9-0.1,123.8-0.2,185.8c0,1-0.6,2.3-1.3,3c-10.6,10.2-21.3,20.3-32,30.4
			c-0.7,0.7-2,1.2-3.1,1.2c-44.2,0-88.4-0.1-132.5-0.2c-0.6,0-1.2-0.1-2.1-0.2c0.6-0.6,0.9-1.1,1.3-1.5
			c25.5-24.7,43.9-53.6,54.9-87.2c4.8-14.8,7.1-29.8,8-45.1c0.5-8,1.8-16,2.5-24c0.9-11.9,1.5-23.9-1.2-35.7
			c-0.9-4.2-2.7-8.2-3.3-12.3c-0.9-6-0.5-12.1,1.6-18c1.3-3.9,4.8-6.6,8.9-6.8c5.2-0.2,10.4-0.1,15.5,0.3c6.8,0.5,13.6,1.3,20.4,2
			c4.8,0.4,9.5-0.1,13.5-3.1c0.2-0.1,0.4-0.2,0.6-0.4c2.9-4.2,7.4-6.5,11.4-9.6c7.5-5.8,9.6-13.5,7.1-22.6c-0.5-1.8-0.7-3.6-0.6-5.4
			c0.1-4.7-0.7-9.3-3.5-13.1c-15.8-21.2-33.5-40.6-55.6-55.6c-5.3-3.6-11.1-6.3-17.6-7.4c-5.6-1-10.3-3.7-14.4-7.6
			c-4.2-4-8.2-8.1-12.3-12.2c-2.1-2.1-4.4-3.7-7.4-4.1c-0.6-0.1-1.1-0.4-1.5-0.8c-6.9-7.6-15.9-11.4-25.9-12.6
			c-15.6-2-30.8-0.1-44.7,7.6c-5.1,2.9-9.7,6.8-14.4,10.5c-1.7,1.4-3.2,2.2-5.4,2.5c-9.9,1-19.5,3.7-28.9,6.8
			c-26,8.3-50.4,20.2-74.1,33.4c-12.4,6.9-24.3,14.5-35.5,23.1c-0.2,0.1-0.4,0.2-0.7,0.3c1.2-2.8,2.3-5.4,3.3-7.8
			c-13.9,1.3-27.6,2.4-41.2,3.8c-15.8,1.6-31.3,4.9-45.4,12.5c-4.1,2.2-7.9,4.9-12.1,7.5c-5.1-12.4-10.2-24.9-15.4-37.4
			c1.9-1.8,3.7-3.7,5.4-5.7c2.3-2.7,3.6-6.2,3.6-9.8c0-19.3,0.1-38.6,0.1-58c0-0.9-0.1-1.8-0.2-2.7c11.8-0.2,23.6-0.3,35.4-0.3
			c53.4-0.1,106.9,0,160.3,0.2c50.4,0.2,100.8,0.5,151.2,0.8c41.8,0.3,83.5,0.6,125.3,0.9c0.8,0,1.7,0,2.8,0
			C1065.7,726.3,1065.7,727.2,1065.7,728.1z"/>
	</g>
	<path d="M562.5,778.2c-0.1-7.9,0-15.8,0-23.6c0-3,0-6.1,0-9.1c0-5,0-10,0-15c0-1.2-0.6-2.7-1.5-3.6c-1-1-2.1-1.9-3.2-2.7
		c-7.2-4.8-16.3-3.8-22.7,3c-0.7,0.7-1.1,1.9-1.2,2.8c0,7.2-0.1,14.3-0.1,21.5c0,9.1,0,18.3,0,27.4c0,0.9,0.4,2,1,2.6
		c3.9,4.2,8.7,6.2,13.5,6.2c4.3-0.1,8.7-1.9,12.5-5.5C562,781.1,562.5,779.9,562.5,778.2z"/>
	<path d="M529.5,740.8c-0.2,0-0.4-0.1-0.6,0c-0.5,0-1.3,1.5-1.3,2.4c-0.1,6.7-0.1,13.3,0,20c0,0.8,0.9,1.6,1.4,2.4
		c0.4-0.8,1.2-1.5,1.3-2.3c0.1-3.4,0.1-6.7,0.1-10.1c0-3.3,0-6.6,0-9.9c0-0.1,0-0.3,0-0.4C530.3,742,530.4,741.1,529.5,740.8z"/>
	<path d="M574.3,777.4c0.3-0.3,0.6-0.7,0.9-1c0.3-0.3,0.5-0.6,0.5-0.9c0.2-2.5,0.1-5,0.1-7.5c0-2.4,0.1-4.9,0-7.3
		c0-0.7-0.8-1.4-1.3-2.1c-0.5,0.6-1.4,1.3-1.4,1.9c-0.1,3.5-0.1,6.9-0.1,10.4c0,1.6,0,3.1,0,4.7C573,776.2,573.9,776.8,574.3,777.4z
		"/>
	<path d="M530.3,810.5c-0.3-1.3,0.7-3.5-1.4-3.5c-2.4,0-1.3,2.2-1.4,3.6c-0.2,2.2,0,4.4-1.8,6.1c-0.5,0.5-0.6,1.4-0.8,2.1
		c0.8,0,2,0.4,2.4,0c1.1-1.1,2.1-2.4,2.6-3.8c0.5-1.1,0.3-2.5,0.5-3.8h-0.1C530.3,811,530.3,810.7,530.3,810.5z"/>
	<path d="M527.5,802.1c0,0.8,0.9,1.6,1.4,2.3c0.6-0.6,1.2-1.2,2.1-2.2c-0.9-1-1.5-1.7-2.1-2.3C528.3,800.6,527.5,801.4,527.5,802.1z
		"/>
	<path d="M531.1,736c-0.9-1-1.5-1.6-2.1-2.3c-0.5,0.7-1.4,1.5-1.3,2.2c0,0.8,0.9,1.6,1.4,2.4C529.6,737.6,530.1,737,531.1,736z"/>
	<path d="M573,782.2c-0.2,1-0.1,2.4,1.4,2.2c0.6-0.1,1.1-1.2,2.1-2.3c-0.9-0.9-1.6-1.5-2.2-2.2C573.8,780.7,573.2,781.4,573,782.2z"
		/>
	<path d="M361.3,804c2,0,1.7-1.4,1.7-2.6c0-4.1,0-8.2,0-12.4c0-4.3,0-8.6,0-12.8c0-1.1,0.2-2.4-1.6-2.5c-1.8,0-1.7,1.2-1.7,2.4
		c0,8.5-0.1,17,0,25.4C359.8,802.6,359.5,804,361.3,804z"/>
	<path d="M315.6,776c-0.5,0.8-1.4,1.6-1.4,2.4c-0.2,3.8-0.1,7.6-0.1,11.5s-0.1,7.7,0,11.5c0,0.8,0.9,1.6,1.4,2.5
		c0.5-0.8,1.4-1.6,1.4-2.4c0.1-7.7,0.1-15.3,0-23C316.9,777.6,316.1,776.8,315.6,776z"/>
	<path d="M363,811c0-1,0.2-2-0.1-3c-0.2-0.6-1.1-1.4-1.6-1.4s-1.3,0.9-1.5,1.5c-0.2,1.2,0.2,2.5-0.1,3.6c-0.4,1.6-1.3,3.1-1.9,4.7
		c-0.3,0.7-0.4,1.4-0.7,2.1c0.8,0,1.6,0.3,2.3,0.1C363,817.2,363,814.1,363,811z"/>
	<path d="M316.8,807.9c-0.1-0.6-0.9-1-1.4-1.5c-0.5,0.5-1.2,1-1.3,1.6c-0.2,1.4,0.1,2.9-0.2,4.3c-0.2,1.3-0.7,2.6-1.4,3.7
		c-0.6,0.8-2,1.5-0.8,2.5c0.5,0.4,2.2,0,2.9-0.6c2.4-1.8,2.2-4.5,2.2-7.1C316.9,809.9,317.1,808.8,316.8,807.9z"/>
	<path d="M317,749.9c-0.1-0.6-0.9-1.1-1.4-1.7c-0.5,0.5-1.3,1-1.3,1.6c-0.1,2.7-0.1,5.5,0,8.2c0,0.5,0.9,1,1.3,1.6
		c0.5-0.6,1.3-1.1,1.4-1.7c0.2-1.3,0.1-2.6,0.1-3.9C317,752.6,317.2,751.2,317,749.9z"/>
	<path d="M314.3,743.5c-0.1,0.7,0.8,1.5,1.3,2.2c0.6-0.6,1.3-1.3,2.2-2.2c-0.9-1.1-1.5-1.7-2-2.4
		C315.3,741.9,314.4,742.7,314.3,743.5z"/>
	<path d="M432.7,730.5c1.8-0.8,3.8-1.9,4.8-3.4c1.1-1.7,0.6-3.9-1.4-5.1c-1-0.6-2.7-1.7-3.1-1.3c-1.8,1.5,0.5,2.1,1,3.2
		c0.4,0.8,0.5,1.9,0.3,2.7c-0.1,0.6-1,0.9-1.6,1.4c-0.2-0.2-0.4-0.5-0.6-0.7c-0.6,0.5-1.2,1-1.7,1.5
		C431.1,729.4,432.3,730.7,432.7,730.5z"/>
	<path d="M434.2,802.7c0.3,0.8,0.2,1.9,0,2.7c-0.2,0.6-1.1,0.9-1.3,1.5c-0.2,0.5-0.2,1.3,0,1.8c0.1,0.2,1.1,0.5,1.4,0.3
		c1.9-1.1,3.6-2.3,3.8-5.4c0-1.5-1-3.1-2.9-3.9c-1.1-0.5-2.5-0.5-3.7-0.4c-0.4,0-0.8,1.1-1.2,1.7c0.6,0.3,1.2,0.7,1.8,1
		C432.8,802.3,434,802.3,434.2,802.7z"/>
	<path d="M391.2,794.5c0.4-0.5,1.1-0.9,1.2-1.4c0.2-1.4,0.1-2.9,0.1-4.3c0-1.4,0.1-2.8-0.1-4.1c-0.1-0.6-0.9-1-1.3-1.5
		c-0.5,0.5-1.3,1-1.4,1.5c-0.1,2.8-0.1,5.6,0,8.5C389.8,793.6,390.7,794,391.2,794.5z"/>
	<path d="M422.9,817.5c2.8-1.9,5.4-3.8,7.9-5.7c0.2-0.2,0-1.2-0.3-1.6c-0.3-0.3-1.2-0.4-1.6-0.2c-2.4,1.4-4.7,2.9-7,4.5
		c-0.4,0.3-0.7,1.1-0.6,1.5C421.5,816.5,422.2,816.8,422.9,817.5z"/>
	<path d="M416.7,769.7c1.6-0.6,2.9-1.1,4.1-1.8c0.5-0.3,0.4-1.3,0.6-2.1c-0.7,0-1.5-0.2-2.2-0.1c-0.9,0.1-1.7,0.6-2.6,0.7
		c-1.1,0.1-2.4,0.1-2.1,1.6C414.7,768.7,415.9,769.1,416.7,769.7z"/>
	<path d="M389.8,798.4c-0.1,0.5,0.8,1.1,1.3,1.7c0.6-0.5,1.1-0.9,2.1-1.7c-0.9-0.9-1.4-1.4-2-1.9
		C390.7,797.1,389.9,797.7,389.8,798.4z"/>
	<path d="M486,819.5c5.3-1.6,10-3.7,13.8-7.3c0.3-0.3,0.2-1.4-0.1-1.7c-0.3-0.3-1.3-0.3-1.8-0.1c-1.5,0.9-2.8,2.2-4.4,3
		c-2.4,1.2-5,2.1-7.4,3.3c-0.6,0.3-1.2,1-1.3,1.6C484.9,818.5,485.7,819.1,486,819.5z"/>
	<path d="M501.3,730.6c0.8,0.2,2-0.1,2.8-0.6c3.2-2.1,3.4-5.9,0.3-8.5c-0.6-0.5-2-1-2.5-0.6c-1.3,0.9-0.3,1.8,0.5,2.6
		c0.4,0.4,0.9,0.9,1.1,1.5c0.6,1.5-0.5,3-2.3,2.5c-0.6,0.5-1.3,0.9-1.9,1.4C500.1,729.4,500.6,730.4,501.3,730.6z"/>
	<path d="M503.3,802.6c0.3,0.7,0.3,1.7,0.1,2.5c-0.2,0.6-1,1-1.3,1.6s-0.1,1.4-0.2,2.1c0.7,0,1.7,0.2,2-0.1c1.2-1.3,2.2-2.8,3.5-4.6
		c-1.2-1.7-2.1-3.4-3.4-4.5c-0.7-0.6-2.3-0.4-3.4-0.3c-0.5,0.1-0.8,1.1-1.1,1.7c0.6,0.3,1.2,0.7,1.9,0.9
		C502,802.1,503.1,802.1,503.3,802.6z"/>
	<path d="M460.3,794.2c0.4-0.5,1.2-0.9,1.2-1.4c0.2-1.4,0.1-2.7,0.1-4.1c0-1.4,0.1-2.9-0.1-4.3c-0.1-0.6-0.8-1-1.3-1.6
		c-0.5,0.5-1.4,1-1.4,1.5c-0.1,2.8-0.1,5.6,0,8.5C458.9,793.3,459.8,793.7,460.3,794.2z"/>
	<path d="M459.9,739.7c0.6-0.1,1.3-0.7,1.5-1.3c0.3-0.7,0.1-1.5,0.1-2.5l0,0c0,0,0.2-1.6,0-2.3c-0.2-0.6-0.9-1-1.3-1.5
		c-0.5,0.5-1.3,0.9-1.4,1.5c-0.2,1.6-0.2,3.2,0,4.8C458.8,738.9,459.6,739.8,459.9,739.7z"/>
	<path d="M486.1,769.9c1.6-0.8,3-1.3,4.2-2.2c0.3-0.2,0.1-1.3,0.2-1.9c-0.6,0-1.3-0.2-1.8-0.1c-0.9,0.2-1.7,0.7-2.5,0.8
		c-1.2,0.1-2.6,0-2.4,1.6C483.7,768.8,485.1,769.3,486.1,769.9z"/>
	<path d="M458.8,797.9c0.1,0.7,0.9,1.3,1.4,1.9c0.5-0.5,1.1-1,2-1.8c-0.9-0.8-1.5-1.3-2-1.8C459.7,796.8,458.8,797.4,458.8,797.9z"
		/>
	<path d="M281,784.5c0-0.1-0.1-0.2-0.1-0.2c-0.6-0.2-1.3-0.5-1.9-0.7c-0.2,0.7-0.7,1.5-0.5,1.9c2.5,4.3,4.8,8.7,7.7,12.8
		c2.3,3.2,2.4,5.9-0.8,8.4c-0.6,0.5-1.2,1-1.6,1.6c-0.3,0.4-0.4,1.3-0.2,1.6c0.4,0.4,1.2,0.7,1.8,0.5c2.4-0.6,5.9-5.2,5.9-8.2
		c-0.2-0.4-0.3-1.3-0.8-2.1C287.3,794.9,284.1,789.7,281,784.5z"/>
	<path d="M279.3,811.9c-0.6,0.1-1.2,0.6-1.8,1c-6.3,3.4-12.7,5.1-19.8,2.6c-0.6-0.2-1.4,0.4-2.1,0.6c0.5,0.7,0.8,1.7,1.4,1.9
		c2.4,0.7,4.9,1.2,7.4,1.8c6.1-0.3,11.4-2.6,16.4-5.6c0.5-0.3,0.5-1.2,0.7-1.9C280.8,812.1,280,811.8,279.3,811.9z"/>
	<path d="M285.2,729.8c1.4,0.1,3,0.4,4.1-0.2c3.4-1.9,3.5-6,0.4-8.6c-0.6-0.5-1.7-0.4-2.5-0.6c0.2,0.8,0.3,1.7,0.5,2.5
		c0.3,1.1,1,2.3,0.9,3.4c-0.1,0.6-1.6,1-2.4,1.4c-0.2-0.2-0.3-0.5-0.5-0.7c-0.5,0.4-1.3,0.7-1.3,1.2
		C284.3,728.7,284.9,729.7,285.2,729.8z"/>
	<path d="M274.3,773.2c-0.1-0.2-1.1-0.1-1.5,0.1c-0.3,0.2-0.6,1-0.4,1.3c1.2,2.1,2.4,4.2,3.8,6.3c0.2,0.3,1,0.4,1.5,0.2
		c0.4-0.1,0.7-0.7,1.1-1.2C277.2,777.7,275.8,775.4,274.3,773.2z"/>
	<path d="M221.3,846c6.6-0.8,11.8-6.4,12-13.1c0.2-7-5-12.8-12.3-13.8c-5.1-0.7-13.7,3.1-14.6,9.3c2.6-3,5.9-3.3,9.4-2.7
		c3.8,0.6,5.8,2.7,5.9,5.9c0.1,3.5-2.1,6.4-5.6,7.2c-3.6,0.7-7,0.3-9.8-2.6C206.9,842.2,215.1,846.7,221.3,846z"/>
</g>
</svg>
